<?xml version="1.0" encoding="UTF-8"?>
<svg xmlns="http://www.w3.org/2000/svg" version="1.1" viewBox="0 0 512 512">
  <defs>
    <style>
      .cls-1 {
        fill: #fff9ec;
      }
    </style>
  </defs>
  <!-- Generator: Adobe Illustrator 28.7.1, SVG Export Plug-In . SVG Version: 1.2.0 Build 142)  -->
  <g>
    <g id="Lager_1">
      <path class="cls-1" d="M236.79,310c46.34-52.25,81.73-93.57,106.16-123.98,24.42-30.4,37.82-47.38,40.18-50.92,2.66-3.25,4.5-4.87,5.54-4.87,1.33,0,1.99.66,1.99,1.99,0,.89-.3,1.85-.89,2.88l-3.1,5.76c-3.69,6.2-6.57,12.14-8.64,17.82-2.07,5.68-3.98,11.62-5.76,17.82-2.21,7.68-4.39,15.61-6.53,23.8-2.14,8.19-4.84,17.57-8.08,28.11-3.25,10.55-7.6,23.29-13.06,38.19-5.91,16.24-11.88,30.7-17.93,43.39-6.05,12.69-12.88,25.83-20.48,39.41-7.6,13.58-16.86,29.96-27.79,49.15,6.94-8.41,16.24-19.59,27.89-33.54,11.66-13.95,24.69-29.3,39.07-46.05,14.39-16.75,29.33-33.72,44.83-50.92,15.5-17.19,30.55-33.32,45.16-48.37,7.89-8.21,15.53-15.89,22.96-23.11-26.41-83.77-107.11-144.9-202.33-144.9-116.61,0-211.48,91.66-211.48,204.33,0,64.33,30.96,121.78,79.2,159.26,12.06-7.69,25.97-18.46,41.77-32.43,20.22-17.85,43.98-42.14,71.29-72.83ZM115.46,250.89c-10.04-4.43-18.12-11.18-24.24-20.26-6.13-9.08-9.19-20.48-9.19-34.2s4.21-26.38,12.62-37.52c8.41-11.14,20.11-19.96,35.09-26.46,14.98-6.49,32.28-9.74,51.92-9.74,10.77,0,20.96.77,30.55,2.32,9.59,1.55,20.15,4.69,31.66,9.41,7.53,3.1,14.61,6.24,21.25,9.41,6.64,3.17,14.17,6.68,22.58,10.52,5.02,2.07,10.18,3.76,15.5,5.09,5.31,1.33,10.41,1.99,15.28,1.99,5.46,0,11.1-1.11,16.94-3.32,5.83-2.21,10.81-5.09,14.94-8.64,2.51-2.36,4.21-3.54,5.09-3.54,1.18,0,1.77.59,1.77,1.77s-1.03,2.88-3.1,5.09c-3.99,3.84-9.15,7.27-15.5,10.29-6.35,3.03-12.81,5.39-19.37,7.09-6.57,1.7-12.14,2.55-16.72,2.55-9.15,0-19.7-1.66-31.66-4.98-11.95-3.32-22.51-7.71-31.66-13.17-11.66-6.79-21.44-11.81-29.33-15.05-7.9-3.25-14.87-5.42-20.92-6.53-6.05-1.11-12.18-1.66-18.38-1.66-14.61,0-28.11,2.88-40.51,8.63-12.4,5.76-22.33,13.65-29.77,23.69-7.46,10.04-11.18,21.4-11.18,34.09,0,15.65,5.24,28.64,15.72,38.96,10.48,10.33,24.42,15.5,41.84,15.5,10.18,0,20.15-2.18,29.89-6.53,9.74-4.35,17.82-10.52,24.24-18.49,6.42-7.97,9.63-17.49,9.63-28.56,0-5.9-1.99-10.99-5.98-15.28-1.03,1.18-2.25,2.25-3.65,3.21-1.41.96-3.07,1.44-4.98,1.44-2.81,0-5.31-.92-7.53-2.77-2.21-1.84-3.32-4.24-3.32-7.2,0-2.51.92-4.79,2.77-6.86,1.84-2.07,4.54-3.1,8.08-3.1,5.46,0,10.41,2.69,14.83,8.08,4.43,5.39,6.64,12.58,6.64,21.59,0,11.95-3.4,22.4-10.19,31.32-6.79,8.93-15.49,15.91-26.12,20.92-10.63,5.02-21.77,7.53-33.43,7.53s-22.07-2.21-32.1-6.64ZM467.48,256c0,112.67-94.87,204.33-211.48,204.33-47.31,0-91.03-15.09-126.3-40.54,5-3.29,10.14-6.99,15.43-11.16,25.24-19.85,55.13-48.6,89.66-86.23,14.46-15.94,27.19-30.22,38.19-42.84,10.99-12.62,21.22-24.61,30.66-35.98,9.44-11.36,18.89-22.91,28.34-34.65,9.44-11.73,19.78-24.61,30.99-38.63-17.86,30.7-34.13,62.14-48.82,94.31-14.69,32.18-25.94,61.33-33.76,87.45-4.58,15.65-8.52,28.56-11.84,38.74-3.32,10.18-6.46,18.49-9.41,24.91-2.95,6.42-6.27,11.92-9.96,16.49-.59.74-1.29,1.44-2.1,2.1-.81.67-1.51,1.29-2.1,1.88-1.18.74-1.77,1.7-1.77,2.88,0,2.07,1.03,3.1,3.1,3.1.89,0,2.21-.59,3.99-1.77,1.77-1.18,4.57-4.06,8.41-8.64,8.41-9.59,19.89-23.17,34.43-40.73,14.53-17.56,31.77-38.04,51.69-61.44,19.92-23.39,42.14-48.52,66.64-75.38,17.36-19.02,33.64-35.91,48.89-50.77,4.63,16.78,7.13,34.39,7.13,52.56ZM256,9.01C119.59,9.01,9.01,119.59,9.01,256s110.58,246.99,246.99,246.99,246.99-110.58,246.99-246.99S392.41,9.01,256,9.01ZM256,466.4c-119.96,0-217.55-94.39-217.55-210.4S136.04,45.6,256,45.6s217.55,94.39,217.55,210.4-97.59,210.4-217.55,210.4Z"/>
    </g>
  </g>
</svg>