<?xml version="1.0" encoding="UTF-8"?>
<svg xmlns="http://www.w3.org/2000/svg" version="1.1" viewBox="0 0 512 512">
  <defs>
    <style>
      .cls-1 {
        fill: #07005e;
      }
    </style>
  </defs>
  <!-- Generator: Adobe Illustrator 28.7.1, SVG Export Plug-In . SVG Version: 1.2.0 Build 142)  -->
  <g>
    <g id="Lager_1">
      <path class="cls-1" d="M415.94,468.79c22.97-16.13,43.21-35.68,59.95-57.85,1.55-2.05,4.8-1,4.8,1.57v58.44c0,1.47-1.19,2.66-2.66,2.66h-60.53c-2.58,0-3.67-3.33-1.56-4.81ZM36.11,410.94c-1.55-2.05-4.8-1-4.8,1.57v58.44c0,1.47,1.19,2.66,2.66,2.66h60.53c2.58,0,3.67-3.33,1.56-4.81-22.97-16.13-43.21-35.68-59.95-57.85ZM415.94,43.51c22.97,16.13,43.21,35.68,59.95,57.85,1.55,2.05,4.8,1,4.8-1.57v-58.44c0-1.47-1.19-2.66-2.66-2.66h-60.53c-2.58,0-3.67,3.33-1.56,4.81ZM498.34,362.88v120.76c0,3.56-2.89,6.45-6.45,6.45h-124.06c-7.02,0-9-9.49-2.62-12.43,52.98-24.45,95.87-66.14,120.87-117.52,1.24-2.54,3.52-3.69,5.79-3.69,3.26,0,6.47,2.38,6.47,6.44ZM491.18,365.97c-25.47,50.76-68.03,92.12-120.35,116.96h120.35s0-116.96,0-116.96ZM144.17,490.09H20.11c-3.56,0-6.45-2.89-6.45-6.45v-120.76c0-4.06,3.22-6.44,6.47-6.44,2.27,0,4.56,1.15,5.79,3.69,25,51.39,67.89,93.08,120.87,117.52,6.38,2.94,4.4,12.43-2.62,12.43ZM141.17,482.93c-52.34-24.86-94.9-66.23-120.35-116.97v116.97s120.35,0,120.35,0ZM498.34,28.66v120.76c0,4.06-3.22,6.44-6.47,6.44-2.27,0-4.56-1.15-5.79-3.69-25-51.39-67.89-93.08-120.87-117.52-6.38-2.94-4.4-12.43,2.62-12.43h124.06c3.56,0,6.45,2.89,6.45,6.45ZM491.18,29.37h-120.35c52.34,24.86,94.9,66.23,120.35,116.97V29.37ZM146.79,34.65c-52.98,24.45-95.87,66.14-120.87,117.52-1.24,2.54-3.52,3.69-5.79,3.69-3.26,0-6.47-2.38-6.47-6.44V28.66c0-3.56,2.89-6.45,6.45-6.45h124.06c7.02,0,9,9.49,2.62,12.43ZM141.17,29.37H20.82v116.97c25.47-50.76,68.03-92.12,120.35-116.97ZM36.11,101.37c16.74-22.17,36.98-41.72,59.95-57.85,2.11-1.48,1.02-4.81-1.56-4.81h-60.53c-1.47,0-2.66,1.19-2.66,2.66v58.44c0,2.57,3.25,3.62,4.8,1.57ZM256.28,62.15c-110.52,0-200.43,86.96-200.43,193.85s89.91,193.85,200.43,193.85,200.43-86.96,200.43-193.85S366.8,62.15,256.28,62.15ZM61.44,256c0-103.81,87.4-188.26,194.84-188.26,87.74,0,162.09,56.33,186.41,133.53-6.85,6.67-13.87,13.69-21.16,21.26-13.46,13.87-27.33,28.73-41.61,44.57-14.28,15.84-28.05,31.48-41.3,46.91-13.26,15.43-25.26,29.57-36,42.42-10.74,12.85-19.31,23.15-25.7,30.9,10.06-17.68,18.59-32.77,25.6-45.28,7-12.51,13.29-24.61,18.87-36.31,5.58-11.69,11.08-25.02,16.52-39.98,5.03-13.73,9.04-25.46,12.03-35.19,2.99-9.72,5.47-18.36,7.45-25.9,1.97-7.55,3.98-14.85,6.02-21.93,1.63-5.71,3.4-11.18,5.3-16.42,1.9-5.23,4.55-10.71,7.96-16.42l2.85-5.3c.54-.95.82-1.84.82-2.65,0-1.22-.61-1.83-1.84-1.83-.95,0-2.65,1.5-5.1,4.49-2.18,3.26-14.52,18.9-37.02,46.91-22.51,28.01-55.11,66.08-97.8,114.22-25.16,28.28-47.05,50.65-65.68,67.1-14.62,12.91-27.4,22.75-38.54,29.83-44.42-34.53-72.92-87.44-72.92-146.69ZM256.28,444.25c-43.6,0-83.9-13.91-116.4-37.38,4.62-3.04,9.36-6.4,14.26-10.25,23.25-18.29,50.79-44.77,82.61-79.45,13.32-14.69,25.05-27.84,35.18-39.47,10.13-11.63,19.55-22.67,28.25-33.15,8.7-10.47,17.4-21.11,26.11-31.92,8.7-10.81,18.22-22.67,28.56-35.59-16.45,28.28-31.45,57.25-44.97,86.89-13.53,29.65-23.9,56.5-31.11,80.57-4.22,14.41-7.85,26.31-10.91,35.69-3.06,9.38-5.95,17.03-8.67,22.95-2.72,5.91-5.78,10.98-9.18,15.2-.55.68-1.19,1.32-1.94,1.94-.75.61-1.39,1.19-1.94,1.73-1.09.68-1.63,1.57-1.63,2.65,0,1.9.95,2.86,2.86,2.86.82,0,2.04-.54,3.67-1.63,1.63-1.09,4.21-3.74,7.75-7.96,7.75-8.84,18.32-21.35,31.72-37.53,13.39-16.18,29.27-35.05,47.63-56.6,18.36-21.55,38.82-44.7,61.39-69.45,16.01-17.54,30.99-33.05,45.05-46.74,4.26,15.45,6.56,31.66,6.56,48.39,0,103.81-87.4,188.26-194.84,188.26ZM126.81,251.29c-9.25-4.08-16.69-10.3-22.33-18.66-5.64-8.36-8.46-18.87-8.46-31.51s3.87-24.3,11.63-34.57c7.75-10.26,18.52-18.39,32.33-24.37,13.8-5.98,29.74-8.97,47.83-8.97,9.92,0,19.31.71,28.15,2.14,8.84,1.43,18.56,4.32,29.17,8.67,6.94,2.86,13.46,5.75,19.58,8.67,6.12,2.92,13.05,6.15,20.81,9.69,4.62,1.91,9.38,3.47,14.28,4.69,4.9,1.22,9.59,1.84,14.08,1.84,5.03,0,10.23-1.02,15.6-3.06,5.37-2.04,9.96-4.69,13.77-7.96,2.31-2.17,3.87-3.26,4.69-3.26,1.09,0,1.63.55,1.63,1.63s-.95,2.65-2.86,4.69c-3.67,3.54-8.43,6.7-14.28,9.48-5.85,2.79-11.8,4.97-17.85,6.53-6.05,1.56-11.19,2.35-15.4,2.35-8.43,0-18.15-1.53-29.17-4.59-11.01-3.06-20.74-7.1-29.17-12.14-10.74-6.25-19.75-10.88-27.03-13.87-7.28-2.99-13.7-5-19.28-6.02-5.58-1.02-11.22-1.53-16.93-1.53-13.46,0-25.9,2.65-37.33,7.95-11.42,5.3-20.57,12.58-27.43,21.82-6.87,9.25-10.3,19.72-10.3,31.41,0,14.41,4.83,26.38,14.48,35.9,9.65,9.52,22.5,14.28,38.55,14.28,9.38,0,18.56-2,27.53-6.02,8.98-4.01,16.42-9.69,22.34-17.03,5.91-7.34,8.87-16.11,8.87-26.31,0-5.44-1.83-10.13-5.51-14.07-.95,1.09-2.07,2.07-3.36,2.96-1.3.89-2.83,1.33-4.59,1.33-2.59,0-4.9-.85-6.94-2.55-2.04-1.7-3.06-3.91-3.06-6.63,0-2.31.85-4.42,2.55-6.32,1.7-1.9,4.18-2.86,7.45-2.86,5.03,0,9.59,2.48,13.67,7.45,4.08,4.96,6.12,11.59,6.12,19.89,0,11.01-3.13,20.63-9.38,28.86-6.26,8.23-14.28,14.65-24.07,19.27-9.79,4.63-20.06,6.94-30.8,6.94s-20.33-2.04-29.58-6.12ZM200.44,51.46c-.22-.94-.05-1.83.53-2.66.57-.84,1.41-1.39,2.5-1.64,1.04-.25,2.01-.13,2.9.36s1.45,1.22,1.69,2.2c.22.94.05,1.83-.53,2.67-.58.84-1.39,1.38-2.43,1.63-1.09.26-2.08.14-2.97-.34-.89-.49-1.45-1.22-1.69-2.2ZM108.22,100.66c-.63-.73-.89-1.6-.76-2.61.12-1.01.61-1.88,1.46-2.61.81-.7,1.72-1.04,2.74-1.02,1.02.02,1.85.41,2.51,1.18.63.73.88,1.6.76,2.61-.13,1.01-.59,1.86-1.4,2.56-.85.73-1.78,1.09-2.79,1.07-1.02-.02-1.85-.42-2.51-1.18ZM160.79,65.76c-.4-.88-.39-1.79.02-2.72.41-.93,1.12-1.63,2.14-2.09.97-.44,1.95-.51,2.92-.2.97.31,1.66.92,2.07,1.84.4.88.39,1.79-.01,2.72-.41.93-1.1,1.62-2.08,2.06-1.02.46-2.02.54-2.98.23s-1.66-.92-2.07-1.84ZM124.61,87.33c-.56-.79-.73-1.68-.5-2.67s.79-1.81,1.71-2.46c.87-.62,1.82-.87,2.83-.75,1.01.12,1.8.59,2.39,1.41.56.79.72,1.68.5,2.67-.22.99-.77,1.8-1.65,2.42-.91.65-1.87.91-2.88.79-1.01-.12-1.81-.59-2.39-1.42ZM142.17,75.68c-.48-.84-.56-1.74-.24-2.71.32-.96.96-1.73,1.93-2.28.93-.53,1.89-.69,2.88-.48.99.22,1.74.76,2.24,1.64.48.84.56,1.74.25,2.71-.32.96-.94,1.71-1.87,2.25-.97.56-1.96.73-2.95.51-.99-.21-1.74-.76-2.24-1.64ZM243.32,47.38c-.78-.65-1.2-1.47-1.25-2.48-.04-.96.29-1.8,1.02-2.52.72-.71,1.64-1.1,2.76-1.15,1.07-.05,2,.25,2.78.9.78.65,1.2,1.47,1.25,2.48.04.96-.3,1.8-1.02,2.52-.72.71-1.62,1.09-2.69,1.14-1.12.05-2.07-.25-2.86-.89ZM471.46,221.17c.95-.14,1.82.11,2.61.75s1.26,1.52,1.43,2.63c.16,1.06-.04,2.01-.6,2.86-.56.85-1.34,1.35-2.34,1.5-.96.14-1.83-.11-2.61-.75-.78-.64-1.26-1.5-1.42-2.55-.17-1.11.03-2.09.59-2.93.56-.85,1.34-1.35,2.34-1.5ZM180.31,57.65c-.31-.91-.22-1.81.27-2.7s1.27-1.51,2.33-1.87c1.01-.34,1.99-.32,2.92.08.93.4,1.56,1.08,1.89,2.04.31.91.22,1.81-.27,2.7-.5.89-1.25,1.5-2.26,1.85-1.06.36-2.06.34-2.99-.06-.93-.4-1.56-1.08-1.89-2.04ZM37.72,226.98c-.56-.85-.75-1.83-.58-2.93.16-1.06.64-1.91,1.43-2.55.79-.64,1.68-.89,2.68-.73.96.15,1.71.64,2.27,1.49.56.85.76,1.8.59,2.86-.17,1.11-.65,1.98-1.43,2.63-.79.64-1.68.89-2.68.73-.95-.15-1.71-.64-2.27-1.49ZM41.78,205.93c-.47-.9-.56-1.89-.28-2.98.27-1.04.83-1.83,1.68-2.39.85-.56,1.76-.71,2.74-.45.93.24,1.63.82,2.1,1.72.47.9.57,1.87.29,2.91-.28,1.08-.85,1.9-1.7,2.46-.85.56-1.76.71-2.74.46-.93-.24-1.63-.82-2.1-1.72ZM47.97,185.48c-.37-.94-.36-1.94.03-2.99.38-1,1.02-1.74,1.92-2.21.9-.47,1.82-.52,2.77-.17.9.34,1.54.98,1.91,1.93.37.95.37,1.92,0,2.92-.39,1.05-1.04,1.81-1.94,2.28-.9.47-1.83.52-2.77.17-.9-.34-1.54-.98-1.91-1.93ZM264.17,47.15c-.72-.72-1.06-1.58-1.01-2.59.05-.96.46-1.77,1.25-2.41.79-.64,1.74-.94,2.86-.89,1.07.05,1.96.44,2.69,1.15.72.72,1.06,1.58,1.01,2.58-.05.96-.46,1.77-1.25,2.41-.79.64-1.72.94-2.78.89-1.12-.05-2.04-.44-2.76-1.15ZM79.73,131.75c-.76-.59-1.18-1.4-1.25-2.41-.07-1.01.23-1.96.92-2.85.66-.84,1.49-1.36,2.49-1.53,1-.18,1.9.04,2.7.66.76.59,1.18,1.4,1.25,2.41.07,1.01-.22,1.94-.88,2.79-.69.88-1.53,1.41-2.53,1.59-1,.18-1.9-.04-2.7-.66ZM93.22,115.49c-.7-.67-1.04-1.51-1.01-2.52.03-1.02.42-1.93,1.2-2.74.74-.78,1.61-1.2,2.63-1.28,1.01-.08,1.88.23,2.62.92.7.67,1.04,1.51,1.01,2.52-.03,1.02-.41,1.91-1.15,2.69-.77.81-1.67,1.26-2.68,1.34-1.01.08-1.89-.23-2.62-.93ZM56.24,165.72c-.27-.98-.16-1.97.33-2.97.48-.96,1.19-1.63,2.13-2,.94-.37,1.87-.34,2.77.11.87.43,1.43,1.13,1.71,2.11.27.98.17,1.95-.3,2.91-.5,1-1.22,1.69-2.16,2.06-.94.37-1.87.33-2.77-.11-.86-.43-1.43-1.13-1.71-2.11ZM66.44,146.98c-.17-1,.04-1.97.63-2.92.57-.91,1.35-1.5,2.32-1.78.98-.27,1.89-.15,2.75.39.82.52,1.31,1.27,1.49,2.27.17,1-.02,1.96-.6,2.86-.6.95-1.38,1.56-2.36,1.84s-1.89.15-2.75-.39c-.82-.51-1.31-1.27-1.49-2.27ZM222.57,49.55c-.84-.57-1.33-1.35-1.47-2.35-.13-.96.13-1.82.78-2.6.65-.78,1.53-1.25,2.64-1.4,1.06-.15,2.01.06,2.85.63.84.57,1.33,1.35,1.47,2.35.13.96-.13,1.82-.78,2.6-.66.78-1.51,1.24-2.57,1.39-1.11.15-2.08-.05-2.93-.62ZM427.92,131.22c-.69-.88-.99-1.84-.92-2.85.07-1.01.51-1.83,1.31-2.45.76-.59,1.65-.8,2.64-.62,1,.18,1.84.71,2.53,1.6.66.84.95,1.77.87,2.79-.07,1.01-.51,1.83-1.31,2.45-.76.59-1.65.8-2.64.62-1-.18-1.83-.69-2.48-1.54ZM35.85,248.25c-.64-.79-.94-1.74-.88-2.86.05-1.07.44-1.96,1.16-2.69.72-.72,1.58-1.05,2.59-1,.96.05,1.77.47,2.41,1.25.64.79.94,1.72.88,2.79-.06,1.12-.44,2.04-1.16,2.76-.72.72-1.58,1.06-2.59,1-.96-.05-1.77-.47-2.41-1.25ZM439.79,148.24c-.59-.95-.8-1.92-.63-2.93.18-1,.69-1.77,1.55-2.3.82-.51,1.72-.63,2.69-.35.98.28,1.76.89,2.36,1.84.57.91.76,1.86.59,2.86-.18,1-.69,1.77-1.55,2.3-.82.51-1.72.63-2.69.35-.98-.28-1.75-.87-2.32-1.78ZM449.92,166.38c-.5-1-.61-2-.33-2.97.27-.98.87-1.69,1.77-2.14.87-.43,1.77-.45,2.72-.08.94.38,1.66,1.06,2.16,2.07.48.96.57,1.93.3,2.91-.28.98-.87,1.69-1.77,2.14-.87.43-1.77.45-2.72.08-.94-.38-1.65-1.04-2.13-2ZM464.66,202.29c.47-.9,1.19-1.48,2.17-1.73.94-.24,1.83-.08,2.67.48.85.56,1.41,1.38,1.69,2.47.27,1.04.17,2.01-.3,2.91s-1.19,1.48-2.17,1.73c-.94.24-1.83.08-2.67-.48-.85-.56-1.41-1.36-1.67-2.4-.28-1.08-.19-2.08.28-2.98ZM473.95,242.21c.96-.05,1.8.29,2.52,1.01.72.72,1.1,1.64,1.15,2.76.05,1.07-.25,2-.89,2.78s-1.47,1.2-2.48,1.25c-.96.05-1.8-.29-2.52-1.01-.71-.72-1.1-1.62-1.15-2.69-.05-1.12.24-2.07.89-2.86.64-.79,1.47-1.2,2.48-1.25ZM458.16,185.48c-.39-1.05-.4-2.05-.02-2.99.38-.94,1.04-1.59,1.98-1.94.9-.34,1.81-.27,2.71.2.9.47,1.55,1.23,1.94,2.28.37,1,.37,1.98,0,2.92-.38.94-1.04,1.59-1.98,1.94-.91.34-1.81.27-2.71-.2-.9-.47-1.54-1.21-1.91-2.21ZM414.42,115.47c-.77-.81-1.17-1.73-1.19-2.74-.02-1.02.33-1.87,1.06-2.56.7-.66,1.56-.96,2.57-.87,1.01.08,1.9.53,2.67,1.34.74.78,1.12,1.67,1.14,2.69.02,1.02-.33,1.87-1.06,2.56-.7.66-1.56.95-2.57.88-1.01-.08-1.89-.51-2.62-1.29ZM325.57,58.05c-.49-.89-.58-1.81-.25-2.77.31-.91.94-1.57,1.87-1.97.93-.4,1.93-.42,2.99-.05,1.01.35,1.77.96,2.26,1.86.49.89.58,1.81.25,2.76-.31.92-.94,1.57-1.87,1.97-.94.4-1.91.42-2.92.08-1.06-.36-1.83-.99-2.33-1.88ZM305.44,52.47c-.58-.84-.74-1.75-.51-2.73.22-.94.78-1.65,1.67-2.14.89-.49,1.88-.6,2.97-.34,1.04.25,1.85.79,2.43,1.63.57.84.74,1.75.51,2.73-.23.94-.78,1.65-1.68,2.14-.89.49-1.86.6-2.9.36-1.09-.26-1.92-.81-2.5-1.65ZM345.01,65.48c-.41-.93-.4-1.86.02-2.78.4-.88,1.08-1.47,2.05-1.78.97-.31,1.96-.23,2.98.23.98.44,1.67,1.13,2.07,2.06.41.93.4,1.86-.01,2.78-.4.88-1.08,1.47-2.05,1.78-.97.31-1.94.24-2.92-.2-1.02-.46-1.73-1.16-2.14-2.09ZM363.72,74.78c-.31-.97-.22-1.89.28-2.76.48-.84,1.22-1.36,2.21-1.57.99-.21,1.97-.04,2.95.52.93.53,1.55,1.28,1.86,2.25.31.97.22,1.89-.28,2.76-.48.84-1.22,1.36-2.21,1.58-.99.21-1.95.05-2.88-.48-.97-.56-1.61-1.32-1.93-2.29ZM284.91,48.84c-.65-.78-.91-1.67-.77-2.67.14-.96.62-1.72,1.47-2.29.84-.57,1.82-.77,2.93-.62,1.06.15,1.92.62,2.57,1.4.65.78.91,1.67.77,2.67-.13.96-.62,1.72-1.47,2.29-.84.57-1.8.78-2.85.63-1.11-.16-1.99-.63-2.64-1.41ZM399.42,101.1c-.84-.74-1.33-1.61-1.45-2.61-.12-1.01.15-1.9.81-2.66.63-.73,1.46-1.1,2.47-1.12,1.02-.02,1.95.34,2.79,1.07.81.7,1.27,1.56,1.4,2.57.12,1.01-.14,1.89-.81,2.66-.63.73-1.46,1.1-2.47,1.12-1.02.02-1.93-.32-2.74-1.03ZM381.4,85.79c-.22-.99-.04-1.9.55-2.72.56-.79,1.34-1.24,2.35-1.36,1.01-.12,1.97.15,2.88.8.87.62,1.42,1.43,1.64,2.42.22.99.04,1.9-.55,2.72-.56.79-1.35,1.24-2.35,1.36-1.01.12-1.95-.13-2.82-.76-.91-.65-1.48-1.47-1.7-2.46ZM470.58,306.88c.47.9.55,1.9.27,2.98-.27,1.03-.84,1.83-1.69,2.38-.85.55-1.76.7-2.74.44-.93-.25-1.63-.82-2.1-1.73-.46-.9-.56-1.87-.28-2.91.29-1.08.86-1.9,1.71-2.46.85-.56,1.76-.7,2.74-.44.93.25,1.63.82,2.1,1.73ZM369.66,436.75c.48.84.55,1.74.23,2.71-.32.96-.97,1.72-1.94,2.28-.93.53-1.89.68-2.89.46-.99-.22-1.74-.77-2.23-1.65-.48-.84-.56-1.74-.23-2.71.32-.96.95-1.71,1.88-2.24.97-.55,1.96-.72,2.95-.5.99.22,1.74.77,2.24,1.65ZM350.99,446.61c.4.88.39,1.79-.03,2.72-.41.93-1.13,1.62-2.15,2.08-.98.44-1.95.5-2.92.18s-1.66-.93-2.07-1.85c-.39-.88-.38-1.79.03-2.72.41-.93,1.11-1.61,2.08-2.05,1.02-.46,2.02-.53,2.98-.21s1.65.93,2.07,1.85ZM268.43,464.66c.78.65,1.19,1.48,1.24,2.49.04.96-.3,1.8-1.03,2.51-.72.71-1.65,1.09-2.77,1.14-1.07.04-2-.26-2.78-.91-.78-.65-1.19-1.48-1.24-2.48-.04-.97.3-1.8,1.03-2.52.73-.71,1.62-1.09,2.69-1.13,1.12-.05,2.07.25,2.85.9ZM311.31,460.75c.22.94.04,1.83-.54,2.66-.58.84-1.41,1.38-2.51,1.63-1.04.24-2.01.12-2.9-.37s-1.45-1.23-1.68-2.21c-.22-.94-.04-1.83.54-2.66.58-.83,1.39-1.37,2.44-1.62,1.09-.25,2.08-.13,2.97.36.89.49,1.45,1.23,1.68,2.21ZM331.47,454.63c.31.91.21,1.81-.29,2.7-.5.88-1.28,1.51-2.34,1.86-1.01.34-1.99.31-2.92-.09-.93-.41-1.56-1.08-1.88-2.04-.31-.92-.21-1.81.29-2.7.5-.88,1.26-1.5,2.27-1.84,1.06-.36,2.06-.33,2.99.07.93.4,1.56,1.09,1.88,2.04ZM289.16,462.57c.84.57,1.33,1.36,1.46,2.36.13.96-.13,1.82-.79,2.6-.66.78-1.54,1.24-2.65,1.39-1.06.14-2.01-.07-2.85-.64-.84-.57-1.33-1.36-1.46-2.36-.13-.96.13-1.82.79-2.6.66-.78,1.51-1.24,2.58-1.38,1.11-.15,2.08.06,2.92.63ZM403.71,411.91c.63.73.88,1.6.75,2.61s-.62,1.88-1.47,2.61c-.81.7-1.73,1.03-2.74,1.01-1.02-.03-1.85-.42-2.51-1.19-.63-.73-.88-1.6-.75-2.61.13-1.01.6-1.86,1.41-2.56.85-.73,1.78-1.08,2.8-1.06,1.02.02,1.85.42,2.51,1.19ZM387.27,425.17c.56.79.72,1.68.49,2.67-.23.99-.8,1.81-1.71,2.45-.88.62-1.82.86-2.83.74-1.01-.12-1.8-.6-2.38-1.42-.56-.79-.72-1.68-.49-2.67.23-.99.78-1.79,1.65-2.41.92-.64,1.88-.9,2.89-.78,1.01.12,1.8.6,2.38,1.43ZM474.72,285.85c.56.85.74,1.83.57,2.94-.17,1.06-.65,1.91-1.44,2.55-.79.64-1.68.88-2.68.72-.95-.15-1.71-.65-2.26-1.5-.55-.85-.75-1.81-.58-2.86.17-1.11.66-1.98,1.45-2.62.79-.64,1.68-.88,2.68-.72.95.15,1.71.65,2.26,1.5ZM464.31,327.29c.37.95.36,1.94-.04,2.99-.38,1-1.02,1.73-1.93,2.2-.9.46-1.83.52-2.77.16-.9-.34-1.54-.99-1.91-1.94-.37-.95-.36-1.92.02-2.92.4-1.05,1.05-1.8,1.95-2.27.9-.46,1.83-.52,2.77-.16.9.34,1.54.99,1.91,1.93ZM418.79,397.1c.7.67,1.03,1.51,1,2.53-.03,1.02-.43,1.93-1.21,2.74-.74.77-1.62,1.2-2.63,1.27-1.01.07-1.88-.24-2.61-.94-.7-.67-1.03-1.51-1-2.53.03-1.02.42-1.91,1.16-2.69.78-.81,1.67-1.25,2.68-1.32,1.01-.07,1.89.24,2.61.94ZM476.68,264.6c.64.79.93,1.74.87,2.86-.06,1.07-.45,1.96-1.17,2.68-.72.72-1.58,1.05-2.59.99-.96-.05-1.77-.47-2.41-1.26-.64-.79-.93-1.72-.87-2.79.06-1.12.45-2.04,1.17-2.75.72-.72,1.59-1.05,2.59-.99.96.05,1.77.47,2.4,1.26ZM432.33,380.92c.76.6,1.17,1.4,1.24,2.41.07,1.01-.24,1.96-.93,2.84-.66.84-1.49,1.35-2.49,1.52-1,.17-1.9-.05-2.69-.67-.76-.6-1.17-1.4-1.24-2.42-.07-1.01.23-1.94.89-2.79.69-.88,1.54-1.41,2.54-1.58,1-.17,1.9.05,2.69.68ZM445.68,365.75c.17,1-.04,1.97-.64,2.92-.57.9-1.35,1.49-2.33,1.76-.98.27-1.9.14-2.75-.4-.82-.52-1.31-1.28-1.48-2.28-.17-1,.03-1.95.61-2.86.6-.94,1.39-1.55,2.37-1.83.98-.27,1.89-.14,2.75.4.81.52,1.31,1.28,1.48,2.28ZM455.97,347.01c.27.98.15,1.97-.35,2.97-.48.96-1.19,1.62-2.14,1.99-.95.37-1.87.33-2.77-.12-.86-.43-1.43-1.14-1.7-2.12-.27-.98-.16-1.95.31-2.91.5-1,1.23-1.69,2.17-2.06.95-.37,1.87-.33,2.77.12.86.43,1.43,1.14,1.7,2.12ZM73.19,364.43c.6.95.81,1.92.64,2.92-.17,1-.69,1.77-1.54,2.31-.82.51-1.71.64-2.69.36-.98-.27-1.77-.88-2.36-1.83-.57-.9-.77-1.86-.6-2.86.17-1,.68-1.77,1.54-2.31.82-.52,1.71-.64,2.69-.36.98.27,1.75.86,2.33,1.77ZM38.67,270.63c-.96.05-1.81-.28-2.52-1-.72-.72-1.11-1.63-1.17-2.75-.05-1.07.24-2,.88-2.79.64-.79,1.47-1.21,2.47-1.26.96-.05,1.81.28,2.52,1,.72.72,1.11,1.61,1.16,2.68.06,1.12-.23,2.07-.87,2.86-.64.79-1.47,1.21-2.47,1.26ZM85.15,381.43c.69.88,1,1.83.93,2.84-.07,1.01-.51,1.83-1.3,2.45-.76.59-1.64.8-2.64.63-1-.17-1.85-.7-2.54-1.59-.66-.84-.95-1.77-.88-2.79.07-1.01.5-1.83,1.3-2.45.76-.6,1.64-.8,2.64-.63,1,.18,1.83.69,2.49,1.53ZM63,346.33c.5,1,.61,1.99.34,2.97-.27.98-.86,1.69-1.76,2.14-.86.43-1.77.46-2.71.09-.95-.37-1.67-1.06-2.17-2.06-.48-.96-.58-1.93-.31-2.91.27-.98.86-1.69,1.76-2.14.87-.43,1.77-.46,2.72-.09.95.37,1.66,1.04,2.14,2ZM54.7,327.3c.4,1.05.41,2.05.04,2.99-.37.95-1.03,1.6-1.97,1.95-.9.34-1.81.28-2.71-.19-.9-.47-1.55-1.22-1.95-2.27-.38-1-.38-1.98,0-2.92.37-.95,1.03-1.6,1.97-1.95.9-.34,1.81-.28,2.71.19.9.47,1.54,1.2,1.92,2.2ZM98.71,397.13c.77.81,1.17,1.72,1.2,2.74.03,1.02-.32,1.87-1.05,2.57-.7.67-1.55.96-2.57.88-1.01-.08-1.91-.52-2.68-1.33-.74-.78-1.12-1.67-1.15-2.69-.03-1.02.32-1.87,1.05-2.57.7-.67,1.56-.96,2.57-.89,1.01.08,1.89.5,2.63,1.28ZM41.25,291.65c-.95.15-1.82-.1-2.61-.74-.79-.64-1.27-1.51-1.44-2.62-.16-1.06.03-2.01.59-2.86.56-.85,1.33-1.35,2.33-1.51.95-.15,1.83.1,2.61.74.79.64,1.26,1.49,1.43,2.55.17,1.11-.02,2.09-.58,2.94-.56.85-1.33,1.35-2.33,1.51ZM48.11,310.49c-.47.9-1.19,1.48-2.16,1.74s-1.83.09-2.68-.47c-.85-.56-1.42-1.38-1.7-2.46-.27-1.03-.17-2,.29-2.91.47-.9,1.19-1.48,2.16-1.74.93-.25,1.83-.09,2.68.47.85.56,1.41,1.35,1.68,2.39.29,1.08.19,2.08-.27,2.98ZM249.21,464.88c.72.71,1.07,1.57,1.02,2.58-.04.96-.46,1.77-1.24,2.42-.78.65-1.73.95-2.85.9-1.07-.05-1.97-.43-2.69-1.14-.72-.71-1.07-1.57-1.02-2.58.04-.96.46-1.77,1.24-2.42.78-.65,1.71-.95,2.78-.9,1.12.05,2.04.43,2.77,1.14ZM113.77,411.44c.85.73,1.34,1.6,1.46,2.61.13,1.01-.14,1.9-.8,2.66-.63.73-1.45,1.11-2.47,1.13-1.02.02-1.95-.33-2.8-1.06-.81-.7-1.28-1.55-1.41-2.56-.13-1.01.14-1.89.8-2.66.63-.73,1.45-1.11,2.47-1.13,1.02-.02,1.93.31,2.74,1.01ZM207.89,459.7c.58.84.75,1.75.52,2.73-.22.94-.78,1.65-1.67,2.14-.89.49-1.88.61-2.97.35-1.04-.24-1.85-.79-2.43-1.62-.58-.84-.75-1.74-.52-2.73.22-.94.78-1.65,1.67-2.14.89-.49,1.86-.61,2.9-.36,1.09.26,1.92.8,2.5,1.64ZM228.45,463.26c.66.78.91,1.67.78,2.67-.13.96-.62,1.72-1.46,2.29-.84.57-1.82.78-2.93.63-1.06-.15-1.92-.61-2.57-1.39-.65-.78-.91-1.67-.78-2.67.13-.96.62-1.72,1.46-2.29.84-.57,1.79-.78,2.85-.64,1.11.15,1.99.62,2.64,1.39ZM187.77,454.21c.5.89.58,1.81.26,2.76-.31.91-.93,1.57-1.86,1.98-.93.4-1.93.43-2.99.07-1.01-.34-1.77-.96-2.27-1.85-.5-.89-.58-1.81-.26-2.76.31-.92.93-1.57,1.86-1.98.93-.4,1.91-.43,2.92-.09,1.06.36,1.84.98,2.34,1.87ZM131.82,426.66c.22.99.05,1.9-.54,2.72-.56.79-1.34,1.25-2.35,1.37-1.01.12-1.97-.14-2.89-.79-.88-.62-1.43-1.42-1.65-2.41-.22-.99-.05-1.9.54-2.72.56-.79,1.34-1.24,2.35-1.37,1.01-.12,1.95.13,2.83.74.92.65,1.49,1.47,1.71,2.46ZM168.3,446.84c.41.93.41,1.86,0,2.78-.4.88-1.08,1.48-2.04,1.79-.97.31-1.96.24-2.98-.22-.98-.44-1.67-1.12-2.08-2.06-.41-.93-.41-1.86,0-2.77.4-.88,1.08-1.48,2.04-1.79.97-.31,1.94-.25,2.92.19,1.02.46,1.74,1.15,2.15,2.08ZM149.58,437.63c.32.96.23,1.89-.27,2.76-.48.84-1.21,1.37-2.21,1.58-.99.22-1.97.05-2.95-.5-.93-.53-1.55-1.28-1.87-2.24-.32-.96-.23-1.89.27-2.76.48-.84,1.21-1.37,2.21-1.59.99-.22,1.95-.06,2.88.47.97.56,1.62,1.31,1.94,2.28ZM256.28,21.91C122.81,21.91,14.22,126.92,14.22,256s108.59,234.09,242.06,234.09,242.06-105.01,242.06-234.09S389.75,21.91,256.28,21.91ZM256.28,484.5c-130.39,0-236.47-102.51-236.47-228.5S125.89,27.5,256.28,27.5s236.47,102.5,236.47,228.5-106.08,228.5-236.47,228.5Z"/>
    </g>
  </g>
</svg>