<?xml version="1.0" encoding="UTF-8"?>
<svg xmlns="http://www.w3.org/2000/svg" version="1.1" viewBox="0 0 512 272.11">
  <defs>
    <style>
      .cls-1 {
        fill: #fff9ec;
      }
    </style>
  </defs>
  <!-- Generator: Adobe Illustrator 28.7.1, SVG Export Plug-In . SVG Version: 1.2.0 Build 142)  -->
  <g>
    <g id="Lager_1">
      <path class="cls-1" d="M175.09,268.01c-1.63,0-2.44-.81-2.44-2.44,0-.93.46-1.68,1.39-2.26.46-.46,1.01-.96,1.65-1.48.64-.52,1.19-1.07,1.66-1.65,2.9-3.6,5.51-7.93,7.84-12.98,2.32-5.05,4.79-11.58,7.4-19.6,2.61-8.01,5.72-18.17,9.32-30.48,6.15-20.55,15.01-43.49,26.57-68.81,11.55-25.31,24.36-50.05,38.41-74.21-8.83,11.03-16.96,21.16-24.39,30.4-7.43,9.23-14.87,18.32-22.3,27.26-7.43,8.94-15.48,18.38-24.13,28.31-8.65,9.93-18.67,21.16-30.05,33.71-27.17,29.61-50.69,52.23-70.55,67.85-19.86,15.62-37.05,23.43-51.56,23.43-11.84,0-20.64-2.32-26.39-6.97-5.75-4.64-8.62-10.16-8.62-16.55,0-5.23,1.8-8.97,5.4-11.24,3.6-2.26,7.2-3.4,10.8-3.4,1.97,0,3.95.64,5.92,1.91,1.97,1.28,2.96,3.31,2.96,6.1,0,2.21-.99,4.21-2.96,6.01-1.98,1.8-4.24,2.7-6.79,2.7-1.51,0-2.99-.11-4.44-.35-1.45-.23-2.76-.7-3.92-1.39v1.04c0,4.99,2.23,9.14,6.71,12.45,4.47,3.31,11.47,4.96,20.99,4.96,7.2,0,16.34-2.99,27.44-8.97,11.09-5.98,24.59-16,40.5-30.05,15.91-14.05,34.6-33.15,56.09-57.31,36.46-41.11,64.3-73.62,83.53-97.55,19.22-23.92,29.76-37.28,31.61-40.07,2.09-2.55,3.54-3.83,4.36-3.83,1.04,0,1.57.52,1.57,1.57,0,.7-.23,1.45-.7,2.26l-2.44,4.53c-2.91,4.88-5.17,9.55-6.79,14.02-1.63,4.47-3.13,9.15-4.53,14.02-1.74,6.04-3.46,12.28-5.14,18.73-1.69,6.44-3.81,13.82-6.36,22.12-2.56,8.3-5.98,18.32-10.28,30.05-4.65,12.78-9.35,24.15-14.11,34.14-4.76,9.99-10.13,20.32-16.11,31.01-5.98,10.68-13.27,23.58-21.86,38.67,5.46-6.62,12.77-15.42,21.95-26.39,9.17-10.97,19.42-23.05,30.74-36.23,11.32-13.18,23.08-26.54,35.28-40.07,12.19-13.53,24.04-26.22,35.53-38.06,20.55-21.37,39.08-38.52,55.57-51.48,16.49-12.95,31.73-22.38,45.73-28.31,13.99-5.92,27.55-8.94,40.67-9.06,12.19,0,21.43,2.7,27.7,8.1,6.27,5.4,9.46,13.04,9.58,22.91.11,7.2-2.41,15.19-7.58,23.95-5.17,8.77-12.37,17.27-21.6,25.52-9.23,8.25-19.95,15.33-32.14,21.25-4.3,1.98-7.55,2.96-9.75,2.96-1.28,0-1.92-.41-1.92-1.22,0-.93.98-1.85,2.96-2.79,9.41-3.6,18.64-8.94,27.7-16.03,9.06-7.08,16.55-15.07,22.47-23.95,5.92-8.88,8.88-17.8,8.88-26.74s-2.47-16.29-7.4-21.34c-4.94-5.05-11.88-7.58-20.82-7.58-13.01,0-27.15,3.72-42.42,11.15-15.27,7.43-32.43,19.28-51.47,35.53-19.05,16.26-40.7,37.69-64.97,64.28-19.28,21.14-36.76,40.91-52.43,59.31-15.68,18.41-29.24,34.52-40.67,48.34-11.44,13.82-20.47,24.5-27.09,32.05-3.02,3.6-5.23,5.86-6.62,6.79-1.39.93-2.44,1.39-3.14,1.39ZM97.4,122.73c-8.94,0-17.36-1.74-25.26-5.23-7.9-3.48-14.26-8.8-19.07-15.94-4.82-7.14-7.23-16.11-7.23-26.91s3.31-20.76,9.93-29.53c6.62-8.77,15.82-15.7,27.61-20.82,11.79-5.11,25.4-7.66,40.85-7.66,8.48,0,16.49.61,24.04,1.83s15.85,3.69,24.91,7.4c5.92,2.44,11.5,4.91,16.72,7.4,5.23,2.5,11.15,5.26,17.77,8.27,3.95,1.63,8.01,2.96,12.19,4.01,4.18,1.04,8.19,1.57,12.02,1.57,4.29,0,8.74-.87,13.33-2.61,4.59-1.74,8.51-4.01,11.76-6.79,1.97-1.85,3.31-2.79,4.01-2.79.93,0,1.39.47,1.39,1.39s-.81,2.26-2.44,4.01c-3.14,3.02-7.2,5.72-12.19,8.1-4.99,2.38-10.08,4.24-15.24,5.58-5.17,1.34-9.55,2-13.15,2-7.2,0-15.5-1.31-24.91-3.92-9.41-2.61-17.71-6.07-24.91-10.37-9.18-5.34-16.87-9.29-23.08-11.84-6.21-2.55-11.7-4.27-16.46-5.14-4.76-.87-9.58-1.31-14.46-1.31-11.5,0-22.12,2.26-31.88,6.79-9.75,4.53-17.57,10.74-23.43,18.64-5.87,7.9-8.8,16.84-8.8,26.83,0,12.31,4.12,22.53,12.37,30.66,8.24,8.13,19.22,12.19,32.92,12.19,8.01,0,15.85-1.71,23.52-5.14,7.66-3.42,14.02-8.27,19.08-14.55,5.05-6.27,7.58-13.76,7.58-22.47,0-4.64-1.57-8.65-4.7-12.02-.81.93-1.77,1.77-2.87,2.53-1.11.76-2.41,1.13-3.92,1.13-2.21,0-4.18-.72-5.92-2.18-1.74-1.45-2.61-3.34-2.61-5.66,0-1.97.72-3.77,2.18-5.4,1.45-1.63,3.57-2.44,6.36-2.44,4.29,0,8.19,2.12,11.67,6.36,3.48,4.24,5.23,9.9,5.23,16.98,0,9.41-2.67,17.62-8.01,24.65-5.34,7.03-12.19,12.51-20.55,16.46-8.36,3.95-17.13,5.92-26.3,5.92Z"/>
    </g>
  </g>
</svg>