<?xml version="1.0" encoding="UTF-8"?>
<svg xmlns="http://www.w3.org/2000/svg" version="1.1" viewBox="0 0 512 256">
  <defs>
    <style>
      .cls-1 {
        fill: #fff9ec;
      }
    </style>
  </defs>
  <!-- Generator: Adobe Illustrator 28.7.1, SVG Export Plug-In . SVG Version: 1.2.0 Build 142)  -->
  <g>
    <g id="Lager_1">
      <path class="cls-1" d="M204.52,109.19c-2.43,3.92-4.55,7.47-6.82,10.93-.73,1.11-1.78,2.08-2.85,2.89-.76.58-1.96,1.32-2.69,1.1-2.65-.81-3.49,1.15-4.71,2.62-1.01,1.21-1.97,2.47-3.06,3.6-3.53,3.67-5.24,3.5-8.14-.95-1.56,1.46-3.08,2.92-4.64,4.32-1.23,1.1-2.37,2.41-3.81,3.11-1.77.87-3.79,1.2-6.03,1.85-1.75,3.41-3.65,7.41-5.84,11.25-1.27,2.22-2.98,4.21-4.56,6.24-.56.73-1.28,1.36-2.02,1.91-5.31,3.95-10.36,2.03-10.78-4.48-.64-10.2,2.42-19.44,9.16-27.19,3.65-4.2,7.5-3.69,10.59.89.31.46.64.9,1,1.4,1.44-2.59.84-7.53-1.16-10.62-1.75-2.7-4.19-3.49-7.37-3.33-5.85.29-10.95,2.71-16.06,5.13-.67.32-1.15,1.57-1.26,2.45-1.33,10.53-3.04,20.99-6.03,31.2-8.24,28.07-20.87,53.94-38.93,77.04-4.87,6.22-10.16,12.11-16.9,16.4-2.24,1.43-4.86,2.46-7.45,3.1-3.21.8-5.96-.59-7.24-3.63-1.09-2.59-1.92-5.43-2.16-8.22-.77-8.97,1.4-17.55,4.43-25.86,10.9-29.84,27.52-56.01,51.04-77.53,5.06-4.63,10.72-8.62,16.31-12.62,2.87-2.06,4.31-4.31,4.34-7.95.13-13.43-.99-26.63-5.95-39.28-1.84-4.71-4.27-9.09-7.67-12.86-7.72-8.59-17.27-10.45-28.03-7.28-11.21,3.31-20.24,10.05-27.95,18.58-12.97,14.35-21.65,30.93-25.11,50.06-1.07,5.9-1.32,11.84.26,17.7.5,1.85,1.2,3.69,2.07,5.4,1.81,3.56,3.71,4.39,7.7,3.79.86-.13,1.75-.02,2.63-.02.06.18.11.36.17.54-.7.33-1.38.81-2.11.95-3.94.76-7.01-.79-9.43-3.8-2.37-2.95-3.33-6.48-3.83-10.13-1.48-10.72.56-21.01,4.24-30.99,6.93-18.82,18.06-34.61,34.46-46.42,4.98-3.58,10.45-6.23,16.47-7.67,13.24-3.17,24.91,1.19,32.79,12.34,6.29,8.89,9.26,19.04,10.63,29.66.86,6.67,1.05,13.42,1.53,20.13.05.68,0,1.37,0,2.29,3.12-1.07,5.85-2.11,8.65-2.94,2.19-.65,4.43-1.29,6.69-1.5,7.59-.69,13.12,3.96,13.71,11.56.2,2.62-.1,5.29-.23,7.94-.06,1.34-.24,2.67-.42,4.65,1.75-.71,3.28-1,4.38-1.85,2.66-2.05,5.17-4.3,7.65-6.57,2.72-2.49,3.32-2.38,4.62,1.17.17.47.35.93.63,1.65,1.13-.61,2.16-1.17,3.17-1.72-.97-3.83-.6-6.23,1.31-6.61.85-.17,1.97.98,3.23,1.68.38-.83.9-2.1,1.53-3.31.3-.58.82-1.04,1.24-1.56.34.56.7,1.12,1.03,1.68.11.18.16.39.27.68,1.75.47,2.88-.62,3.74-1.81,4.42-6.06,8.33-12.31,8.74-20.18.31-6.08,1.86-11.9,5.54-16.93.46-.62,1.37-.92,2.07-1.36.33.87,1.09,1.83.92,2.59-.95,4.1-2.05,8.18-3.25,12.21-.67,2.26-1.77,4.4-2.42,6.66-.4,1.4-.6,2.96-.43,4.4.27,2.22,2.3,3.94,4.23,3.91,2.22-.03,2.79-1.66,3.1-3.25,1.27-.65,2.42-1.23,3.8-1.94.29.32.78.87,1.52,1.69.47-1.11.94-2.03,1.25-3.01,5.21-16.38,10.24-32.82,15.65-49.14,2.7-8.15,5.97-16.11,9.18-24.09.92-2.29,2.37-4.41,3.84-6.43,1.07-1.46,2.24-1.25,3.03.21,1.06,1.95,1.67,9.93.74,12.76-1.86-4.01.79-8.05-1.47-11.93-.82,1.3-1.7,2.32-2.16,3.51-3.76,9.67-7.85,19.24-11.05,29.1-4.46,13.76-8.22,27.74-12.28,41.63-.14.47-.2.95.03,1.72.53-.48,1.11-.92,1.58-1.45,5.23-5.85,9.74-12.21,13.27-19.23,1.6-3.19,2.3-6.5,2.11-10.15-.63-12.55,3.61-23.08,13.78-30.84,3.47-2.65,7.39-4.41,11.84-4.63,7.04-.33,11.76,3.93,12.18,11,.34,5.78-1.49,11.03-4.08,16.06-3.46,6.73-7.9,12.8-12.99,18.39-.54.6-1.21,1.08-1.82,1.62-.23-.14-.46-.29-.7-.43.37-.78.64-1.64,1.14-2.33,3.07-4.23,6.34-8.33,9.27-12.66,3.68-5.43,6.63-11.24,7.54-17.87.14-.99.21-2,.16-3-.31-6.29-4.4-9.57-10.56-8.27-6.26,1.32-11.07,5.08-14.86,10-7.32,9.51-8.9,20.11-5.35,31.51,1.62,5.18,6.81,14.65,9.34,17.3,4.33-2.3,8.52-4.76,12.9-6.8,6.47-3.02,13.25-5.11,20.43-5.57,2.13-.14,4.32-.08,6.43.24,6.65.99,10.57,5.38,11.15,12.24.4,4.68-.4,9.18-2.39,13.4-2.11,4.47-4.47,8.82-6.74,13.2-.26.5-.61,1-1.05,1.34-.33.26-.97.51-1.27.35-.43-.23-.93-.81-.93-1.24,0-.67.22-1.46.63-2,5.02-6.62,7.38-14.28,8.91-22.28.08-.42.09-.85.12-1.28.54-8.53-3.6-13.01-12.14-12.95-7.55.06-14.51,2.58-21.26,5.62-4.69,2.11-9.22,4.56-14.05,6.98.94,1.43,1.64,2.57,2.41,3.67,6.04,8.62,12.39,17.05,16.85,26.68,8.26,17.88,6.8,34.94-5.56,50.26-15.04,18.64-34.19,31.67-57.34,38.39-6.81,1.98-13.82,2.44-20.85.88-10.71-2.38-17.41-10.33-17.95-21.27-.4-8.16,1.79-15.76,5.09-23.08,6.51-14.44,16.2-26.67,27.15-37.93,3.21-3.3,5.53-6.79,6.63-11.26,1.1-4.45,2.54-8.81,3.87-13.2.31-1.04.48-1.82-.74-2.5-1.22-.68-1.73-.15-2.47.69-3.52,4.01-6.42,4-10.05.06-.24-.26-.4-.59-.68-1.01ZM208.91,171.89c.34.16.68.33,1.02.49-.9,1.92-1.69,3.91-2.78,5.71-.37.61-1.63,1.15-2.3.98-.68-.17-1.44-1.18-1.61-1.95-.29-1.3-.25-2.7-.17-4.05.57-9.66,3.23-18.9,5.7-28.17.58-2.17,1.19-4.33,1.85-6.72-.5.22-.73.27-.88.4-.6.51-1.21,1.02-1.75,1.59-9.85,10.46-18.23,21.95-24.14,35.09-3.41,7.58-5.59,15.48-4.78,23.96.77,8.08,5.78,14.24,13.57,16.5,5.67,1.65,11.36,1.33,17.03.15,10.62-2.22,20.13-7.01,29.13-12.87,12.13-7.91,22.8-17.37,30.53-29.8,10.17-16.36,10.22-32.9.44-49.36-4.21-7.08-9.02-13.79-13.45-20.74-.97-1.51-1.76-1.68-3.21-.71-12.02,7.99-23.67,16.46-33.95,26.63-1.46,1.45-2.63,3.45-3.27,5.41-2.71,8.38-5.31,16.8-7.66,25.29-1.35,4.89-2.19,9.92-3.18,14.9-.16.81.09,1.71.15,2.56.18.03.35.06.53.09,1.06-1.8,2.12-3.6,3.18-5.39ZM130.32,123.37c-.2-.08-.4-.15-.6-.23-.48.28-1.02.49-1.44.84-5.64,4.64-11.58,8.97-16.82,14.02-15.67,15.11-28.04,32.74-38.15,51.95-6.6,12.54-12.12,25.51-14.43,39.61-.77,4.67-1.35,9.4.19,14.04,1.19,3.61,3.8,5.1,7.37,3.86,2.4-.83,4.75-2.08,6.79-3.59,7.6-5.6,13.44-12.89,18.75-20.57,18.42-26.62,30.21-56.01,36.35-87.71.79-4.06,1.34-8.16,2-12.24ZM242.9,78.35c.08-.08-.13.04-.18.22-3,9.29-8.7,16.91-15.19,23.95-2.42,2.62-4.08,5.46-5.03,8.82-1.25,4.45-2.54,8.89-3.85,13.46,11.78-8.61,23.31-17.04,34.68-25.35-3.41-6.89-6.93-14.03-10.43-21.1ZM140.37,150.9c.3,1.82.42,3.7.95,5.45.61,2,2.19,2.61,3.84,1.32,2.17-1.7,4.51-3.48,5.95-5.75,2.44-3.83,4.08-8.16,6.34-12.12,2.64-4.63,1.2-8.66-1.32-12.65-1.23-1.96-2.66-2.41-4.46-.9-2,1.67-3.95,3.58-5.36,5.75-3.69,5.7-5.41,12.09-5.94,18.9ZM324.83,89.3c-2.63,6.27-6.87,12.17-4.96,19.57,3.79-.69,6.67-4.18,6.86-7.95.07-1.35.19-2.72.51-4.03.12-.5,1.09-1.28,1.28-1.18.65.33,1.58,1.01,1.58,1.55,0,1.68-.39,3.37-.72,5.72,2.32-.8,4.37-1.31,6.23-2.2,4.27-2.05,6.83-5.79,9.08-9.77.71-1.25,1.26-2.59,2.06-3.76.32-.47,1.14-.6,1.73-.89.17.66.65,1.43.46,1.97-.45,1.27-1.26,2.4-1.83,3.63-.58,1.26-1.05,2.57-1.56,3.86.26.19.53.39.79.58,1.46-1.55,3.11-2.95,4.31-4.68,1.3-1.86,2.43-3.93,3.16-6.07.65-1.9.64-4.01.99-6.47,2.07,2.04,3.43,1.13,4.78-.15.67-.64,1.4-1.26,2.19-1.73,6.23-3.72,9.22-9.54,10.94-16.31,4.59-17.97,12-34.79,21.35-50.76,1.2-2.05,2.97-3.86,4.79-5.43,2.21-1.91,4.28-1.08,4.4,1.85.13,3.12-.02,6.33-.64,9.38-2.6,12.65-7.79,24.3-14.8,35.06-4.17,6.4-9.35,12.14-13.67,18.46-1.93,2.83-3.1,6.26-4.19,9.56-1.68,5.09-2.99,10.29-4.64,16.06,1.78-.69,3.1-1.11,4.34-1.7,19.31-9.13,38.74-18.01,57.87-27.51,18.3-9.09,36.27-18.82,54.41-28.23.59-.3,1.43-.12,2.15-.16.06.27.13.54.19.8-.86.58-1.67,1.24-2.58,1.73-17.3,9.3-34.46,18.87-51.96,27.77-16.28,8.29-32.89,15.95-49.44,23.71-3.94,1.85-8.19,3.03-12.34,4.4-2.27.74-3.53,2.1-4.17,4.43-2.31,8.5-4.76,16.96-7.17,25.44-.21.72-.53,1.41-1.14,2.03-.03-4.49,1.2-8.74,2.12-13.05.93-4.34,1.84-8.69,2.92-13,1.1-4.37,2.35-8.71,3.63-13.04,1.25-4.2,2.64-8.36,3.96-12.54-.19-.1-.38-.21-.57-.31-1.1.88-2.18,1.78-3.3,2.62-1.55,1.15-3,2.61-4.74,3.3-2.69,1.05-3.78,3.08-4.92,5.47-1.44,3.01-3.29,5.84-5.18,8.61-1.08,1.58-2.74,2.16-4.76,1.46-.55-.19-1.49.18-2.02.59-1.81,1.39-3.35,3.27-5.33,4.3-2.14,1.12-4.64,1.74-7.05,2.13-1.27.21-2.01.49-2.71,1.56-.85,1.3-1.85,2.59-3.06,3.55-2.65,2.1-6.3.87-7.17-2.4-.34-1.27-.38-2.71-.18-4.02.72-4.86,3.1-9.04,5.81-13.04.32-.48.88-.79,1.33-1.19.2.14.4.27.59.41ZM374.67,65.13c.84-.89,1.48-1.51,2.07-2.19,10.22-11.82,17.46-25.32,22.29-40.11,1.35-4.12,2.09-8.46,2.93-12.73.24-1.2-.17-2.53-.3-4.06-7.88,5.34-26.28,45.87-26.98,59.09Z"/>
    </g>
  </g>
</svg>