<?xml version="1.0" encoding="UTF-8"?>
<svg xmlns="http://www.w3.org/2000/svg" version="1.1" viewBox="0 0 512 413">
  <defs>
    <style>
      .cls-1 {
        fill: #07005e;
      }
    </style>
  </defs>
  <!-- Generator: Adobe Illustrator 28.7.1, SVG Export Plug-In . SVG Version: 1.2.0 Build 142)  -->
  <g>
    <g id="Lager_1">
      <path class="cls-1" d="M494.65,395.52c-7.71,2.75-13.41,4.13-17.11,4.13-32.07,0-64.59-7.58-97.59-22.72-35.46-15.98-66.29-38.57-92.5-67.76-36.39,31.4-70.61,54.13-102.67,68.17-35.46,15.7-74.31,23.55-116.55,23.55-10.17,0-19.58-.48-28.21-1.45-8.64-.97-12.34-1.45-11.1-1.45-7.71,0-11.57-1.1-11.57-3.3,0-1.1,1.24-2.48,3.7-4.13h14.34c26.82,0,47.79-1.39,62.9-4.13,20.04-3.86,38.69-11.16,55.96-21.9,47.48-29.48,80.47-58.94,98.97-88.42-1.23-2.2-7.63-10.8-19.19-25.82-11.56-15.01-21.04-29.67-28.44-44-27.75,28.92-59.36,43.38-94.81,43.38-20.35,0-38.24-6.54-53.65-19.63-15.42-13.08-23.12-27.74-23.12-44,0-18.45,6.86-33.94,20.59-46.48,13.71-12.53,30.75-18.8,51.1-18.8,11.41,0,24.13,3.86,38.16,11.57,14.03,7.71,26.75,18.59,38.16,32.64,37.61-56.19,61.35-105.77,71.22-148.74l6.02-4.13c1.85.56,3.54,4.27,5.08,11.16,1.85,9.64,3.7,19.41,5.55,29.33,6.16,32.23,21.28,71.48,45.33,117.75l2.78.82c7.4-14.87,19.11-26.71,35.15-35.53,15.11-8.81,31.14-13.22,48.1-13.22,22.2,0,40.54,6.82,55.04,20.45,14.49,13.63,21.74,30.78,21.74,51.44,0,14.6-6.63,28.1-19.89,40.49-13.26,12.4-28.06,18.59-44.4,18.59-22.82,0-44.25-11.84-64.28-35.53-10.49,22.04-28.37,49.31-53.65,81.81,21.89,28.92,49.95,51.16,84.17,66.72s72.46,23.34,114.7,23.34v5.79ZM174.6,177.38c0-6.61-7.87-15.7-23.59-27.27-16.65-12.4-31.91-18.6-45.79-18.6-17.27,0-31.15,4.55-41.63,13.63-10.49,9.09-15.72,21.35-15.72,36.77s4.69,28.58,14.1,37.81c9.4,9.23,21.66,13.84,36.77,13.84s34.37-9.92,55.96-29.75c13.26-12.11,19.89-20.93,19.89-26.44ZM311.04,180.27c-8.32-11.29-16.34-25.75-24.05-43.39-10.49-24.78-16.5-38.56-18.03-41.31-12.02,27.82-24.97,53.16-38.85,76.02-11.1,18.18-16.65,27.13-16.65,26.85,17.58,29.48,33.76,51.92,48.56,67.35,5.55-7.98,21.89-36.5,49.03-85.52ZM465.51,195.97c0-17.35-5.25-30.99-15.73-40.9-10.49-9.92-23.75-14.87-39.77-14.87h-3.7c-6.17,0-12.95,3.92-20.35,11.77-7.4,7.85-13.57,18.25-18.5,31.2-7.71,20.1-11.56,29.06-11.56,26.85,0,1.93,7.7,9.37,23.12,22.31,15.1,7.43,26.05,11.15,32.83,11.15,14.49,0,27.05-4.68,37.69-14.04s15.96-20.52,15.96-33.47Z"/>
    </g>
  </g>
</svg>