<?xml version="1.0" encoding="UTF-8"?>
<svg xmlns="http://www.w3.org/2000/svg" version="1.1" viewBox="0 0 512 413">
  <defs>
    <style>
      .cls-1 {
        fill: #07005e;
      }
    </style>
  </defs>
  <!-- Generator: Adobe Illustrator 28.7.1, SVG Export Plug-In . SVG Version: 1.2.0 Build 142)  -->
  <g>
    <g id="Lager_1">
      <g id="Lager_1-2" data-name="Lager_1">
        <path class="cls-1" d="M17.4,17.5c7.7-2.8,13.4-4.1,17.1-4.1,32.1,0,64.6,7.6,97.6,22.7,35.5,16,66.3,38.6,92.5,67.8,36.4-31.4,70.6-54.1,102.7-68.2,35.5-15.7,74.3-23.5,116.6-23.5s19.6.5,28.2,1.5c8.6,1,12.3,1.5,11.1,1.5,7.7,0,11.6,1.1,11.6,3.3s-1.2,2.5-3.7,4.1h-14.3c-26.8,0-47.8,1.4-62.9,4.1-20,3.9-38.7,11.2-56,21.9-47.5,29.5-80.5,58.9-99,88.4,1.2,2.2,7.6,10.8,19.2,25.8,11.6,15,21,29.7,28.4,44,27.8-28.9,59.4-43.4,94.8-43.4s38.2,6.5,53.7,19.6c15.4,13.1,23.1,27.7,23.1,44s-6.9,33.9-20.6,46.5c-13.7,12.5-30.7,18.8-51.1,18.8s-24.1-3.9-38.2-11.6-26.8-18.6-38.2-32.6c-37.6,56.2-61.4,105.8-71.2,148.7l-6,4.1c-1.9-.6-3.5-4.3-5.1-11.2-1.9-9.6-3.7-19.4-5.5-29.3-6.2-32.2-21.3-71.5-45.3-117.8l-2.8-.8c-7.4,14.9-19.1,26.7-35.1,35.5-15.1,8.8-31.1,13.2-48.1,13.2s-40.5-6.8-55-20.4c-14.5-13.6-21.7-30.8-21.7-51.4s6.6-28.1,19.9-40.5c13.3-12.4,28.1-18.6,44.4-18.6s44.2,11.8,64.3,35.5c10.5-22,28.4-49.3,53.6-81.8-21.9-28.9-50-51.2-84.2-66.7S59.6,23.3,17.3,23.3v-5.8h0ZM337.4,235.6c0,6.6,7.9,15.7,23.6,27.3,16.6,12.4,31.9,18.6,45.8,18.6s31.2-4.6,41.6-13.6c10.5-9.1,15.7-21.4,15.7-36.8s-4.7-28.6-14.1-37.8c-9.4-9.2-21.7-13.8-36.8-13.8s-34.4,9.9-56,29.8c-13.3,12.1-19.9,20.9-19.9,26.4h0ZM201,232.7c8.3,11.3,16.3,25.8,24,43.4,10.5,24.8,16.5,38.6,18,41.3,12-27.8,25-53.2,38.9-76,11.1-18.2,16.6-27.1,16.6-26.9-17.6-29.5-33.8-51.9-48.6-67.4-5.5,8-21.9,36.5-49,85.5h0ZM46.5,217c0,17.4,5.2,31,15.7,40.9,10.5,9.9,23.8,14.9,39.8,14.9h3.7c6.2,0,13-3.9,20.4-11.8s13.6-18.2,18.5-31.2c7.7-20.1,11.6-29.1,11.6-26.9,0-1.9-7.7-9.4-23.1-22.3-15.1-7.4-26-11.1-32.8-11.1-14.5,0-27,4.7-37.7,14s-16,20.5-16,33.5h0Z"/>
      </g>
    </g>
  </g>
</svg>