<?xml version="1.0" encoding="UTF-8"?>
<svg xmlns="http://www.w3.org/2000/svg" version="1.1" viewBox="0 0 512 160">
  <defs>
    <style>
      .cls-1 {
        fill: #fff9ec;
      }
    </style>
  </defs>
  <!-- Generator: Adobe Illustrator 28.7.1, SVG Export Plug-In . SVG Version: 1.2.0 Build 142)  -->
  <g>
    <g id="Lager_1">
      <path class="cls-1" d="M30.9,61.26c-2.62-3.89-3.94-8.77-3.94-14.65s1.8-11.3,5.41-16.08c3.6-4.77,8.61-8.55,15.03-11.33,6.42-2.78,13.83-4.17,22.24-4.17,4.61,0,8.98.33,13.09,1,4.11.66,8.63,2.01,13.56,4.03,3.22,1.33,6.26,2.67,9.1,4.03,2.85,1.36,6.07,2.86,9.67,4.5,2.15.89,4.36,1.61,6.64,2.18s4.46.85,6.54.85c2.34,0,4.76-.47,7.26-1.42,2.5-.95,4.63-2.18,6.4-3.7,1.07-1.01,1.8-1.52,2.18-1.52.51,0,.76.25.76.76s-.44,1.23-1.33,2.18c-1.71,1.64-3.92,3.11-6.64,4.41-2.72,1.3-5.49,2.31-8.3,3.03-2.81.73-5.2,1.09-7.16,1.09-3.92,0-8.44-.71-13.56-2.13-5.12-1.42-9.64-3.3-13.56-5.64-5-2.91-9.18-5.06-12.57-6.45-3.38-1.39-6.37-2.32-8.96-2.8-2.59-.47-5.22-.71-7.87-.71-6.26,0-12.04,1.23-17.36,3.7-5.31,2.47-9.56,5.85-12.76,10.15-3.19,4.3-4.79,9.17-4.79,14.61,0,6.7,2.24,12.27,6.73,16.69,4.49,4.43,10.46,6.64,17.92,6.64,4.36,0,8.63-.93,12.8-2.8,4.17-1.86,7.63-4.5,10.38-7.92s4.13-7.49,4.13-12.23c0-2.53-.85-4.71-2.56-6.54-.44.51-.96.96-1.56,1.38-.6.41-1.31.62-2.13.62-1.2,0-2.28-.39-3.22-1.19-.95-.79-1.42-1.82-1.42-3.08,0-1.07.39-2.05,1.19-2.94.79-.88,1.94-1.33,3.46-1.33,2.34,0,4.46,1.15,6.35,3.46,1.9,2.31,2.85,5.39,2.85,9.25,0,5.12-1.46,9.6-4.36,13.42-2.91,3.83-6.64,6.81-11.19,8.96-4.55,2.15-9.33,3.22-14.32,3.22s-9.45-.95-13.75-2.85c-4.3-1.9-7.76-4.79-10.38-8.68ZM203.46,36.36c10.37-8.85,19.71-15.3,28.02-19.35,8.31-4.05,16.01-6.07,23.09-6.07,4.87,0,8.65,1.38,11.33,4.13,2.69,2.75,4.03,6.62,4.03,11.62s-1.61,9.72-4.84,14.56c-3.22,4.84-7.3,9.18-12.23,13.04-4.93,3.86-9.96,6.77-15.08,8.73-1.08.51-1.61,1.01-1.61,1.52,0,.44.35.66,1.04.66,1.2,0,2.97-.54,5.31-1.61,6.64-3.22,12.47-7.08,17.5-11.57,5.03-4.49,8.95-9.12,11.76-13.89,2.81-4.77,4.19-9.12,4.13-13.04-.06-5.37-1.8-9.53-5.22-12.47-3.41-2.94-8.44-4.41-15.08-4.41-7.15.06-14.53,1.71-22.14,4.93-7.62,3.22-15.92,8.36-24.9,15.41-8.98,7.05-19.06,16.39-30.25,28.02-6.26,6.45-12.71,13.36-19.35,20.72-6.64,7.37-13.04,14.64-19.2,21.81-6.16,7.18-11.75,13.75-16.74,19.73-5,5.97-8.98,10.76-11.95,14.37,4.68-8.22,8.65-15.24,11.9-21.05,3.26-5.82,6.18-11.44,8.77-16.88,2.59-5.44,5.15-11.63,7.68-18.59,2.34-6.39,4.2-11.84,5.6-16.36,1.39-4.52,2.54-8.54,3.46-12.04.92-3.51,1.85-6.91,2.8-10.2.76-2.66,1.58-5.2,2.47-7.63.88-2.43,2.12-4.98,3.7-7.63l1.33-2.47c.25-.44.38-.85.38-1.23,0-.57-.28-.85-.85-.85-.44,0-1.23.7-2.37,2.09-1.01,1.52-6.75,8.79-17.21,21.81-10.46,13.03-25.62,30.73-45.48,53.11-11.7,13.15-21.88,23.55-30.54,31.2-8.66,7.65-16.01,13.1-22.05,16.36-6.04,3.26-11.02,4.88-14.94,4.88-5.19,0-8.99-.9-11.43-2.7-2.43-1.8-3.65-4.06-3.65-6.78v-.57c.63.38,1.34.63,2.13.76.79.13,1.6.19,2.42.19,1.39,0,2.62-.49,3.7-1.47,1.07-.98,1.61-2.07,1.61-3.27,0-1.52-.54-2.62-1.61-3.32-1.08-.69-2.15-1.04-3.22-1.04-1.96,0-3.92.62-5.88,1.85-1.96,1.23-2.94,3.27-2.94,6.12,0,3.48,1.56,6.48,4.69,9.01,3.13,2.53,7.92,3.79,14.37,3.79,7.9,0,17.26-4.25,28.07-12.76,10.81-8.5,23.61-20.82,38.41-36.94,6.2-6.83,11.65-12.95,16.36-18.35,4.71-5.41,9.09-10.54,13.14-15.41,4.05-4.87,8.09-9.82,12.14-14.84,4.05-5.03,8.47-10.54,13.28-16.55-7.65,13.15-14.62,26.62-20.91,40.4-6.29,13.78-11.11,26.27-14.46,37.46-1.96,6.7-3.65,12.23-5.07,16.6-1.42,4.36-2.77,7.92-4.03,10.67-1.27,2.75-2.69,5.11-4.27,7.07-.25.32-.55.62-.9.9-.35.28-.65.55-.9.81-.51.32-.76.73-.76,1.23,0,.88.44,1.33,1.33,1.33.38,0,.95-.25,1.71-.76.76-.51,1.96-1.74,3.6-3.7,3.6-4.11,8.52-9.93,14.75-17.45,6.23-7.52,13.61-16.3,22.14-26.32,8.54-10.02,18.05-20.78,28.55-32.29,13.21-14.48,25-26.14,35.37-35ZM505.14,113.18c-.76.82-2.29,2.61-4.6,5.36-2.31,2.75-5.14,5.91-8.49,9.48-3.35,3.57-6.99,7.08-10.91,10.53-3.92,3.45-7.87,6.31-11.85,8.58-3.98,2.28-7.75,3.41-11.29,3.41s-6.39-.68-8.91-2.04c-2.53-1.36-3.79-3.14-3.79-5.36,0-1.71.43-3.73,1.28-6.07.85-2.34,2.77-5.55,5.74-9.63,2.97-4.08,7.56-9.59,13.75-16.55,4.93-5.63,8.38-9.99,10.34-13.09,1.96-3.1,2.94-5.41,2.94-6.92,0-.88-.35-1.67-1.04-2.37-.7-.69-1.96-1.04-3.79-1.04-1.52,0-3.45.54-5.79,1.61-2.34,1.08-5.56,3.16-9.67,6.26-4.93,3.73-10.73,8.99-17.4,15.79-6.67,6.8-14.05,15.32-22.14,25.56l-8.82,11.57c-1.52-.32-3.32-.47-5.41-.47-2.21,0-4.09.11-5.64.33-1.55.22-2.67.43-3.37.62,3.73-4.55,6.62-8.09,8.68-10.62,2.05-2.53,3.7-4.57,4.93-6.12,1.23-1.55,2.42-3.07,3.56-4.55,1.14-1.48,2.62-3.43,4.46-5.83,1.83-2.4,4.43-5.82,7.78-10.24,3.67-4.8,6.4-8.58,8.2-11.33,1.8-2.75,3.02-4.84,3.65-6.26.63-1.42.95-2.54.95-3.37,0-1.96-1.55-2.94-4.65-2.94-1.58,0-3.7.55-6.35,1.66-2.66,1.11-5.94,3.21-9.86,6.31-4.36,3.48-9.85,8.63-16.45,15.46-6.61,6.83-14.15,15.43-22.62,25.8l-8.82,11.57c-.89-.19-1.79-.32-2.7-.38-.92-.06-1.82-.09-2.7-.09-2.28,0-4.19.11-5.74.33-1.55.22-2.64.43-3.27.62,7.08-10.24,12.99-18.73,17.73-25.46,4.74-6.73,8.55-12.12,11.43-16.17,2.88-4.05,5.03-7.13,6.45-9.25,1.42-2.12,2.39-3.63,2.89-4.55.51-.92.79-1.66.85-2.23.13-1.83-.57-2.75-2.09-2.75-.89,0-2.28.89-4.17,2.66-1.9,1.77-4.03,3.98-6.4,6.64-2.37,2.66-4.69,5.39-6.97,8.2-2.28,2.81-4.27,5.26-5.97,7.35-.95.82-2.55,2.62-4.79,5.41-2.25,2.78-5.09,5.97-8.54,9.58-3.45,3.6-7.41,7.11-11.9,10.53-4.49,3.41-9.47,6.26-14.94,8.54-5.47,2.28-11.33,3.41-17.59,3.41s-10.62-1.61-13.28-4.84c-2.66-3.22-4.05-7.18-4.17-11.85-.06-3.08.51-6.47,1.69-10.17-2.78,2.42-5.68,4.62-8.71,6.57-3.92,2.53-7.59,3.79-11,3.79-3.1,0-5.04-.92-5.83-2.75-.79-1.83-.49-4.27.9-7.3-4.68,3.92-9.99,7.9-15.93,11.95-5.94,4.05-11.93,7.43-17.97,10.15-6.04,2.72-11.52,4.08-16.45,4.08-7.08,0-10.62-2.62-10.62-7.87,0-2.28.44-4.6,1.33-6.97.87-2.33,2.58-5.35,5.13-9.04-2.46,2.22-4.98,4.16-7.54,5.77-2.81,1.77-5.45,2.66-7.92,2.66-3.03,0-5.09-.95-6.16-2.85-4.68,5.31-9.94,9.69-15.79,13.14-5.85,3.45-11.59,5.17-17.21,5.17-5.31,0-9.23-1.22-11.76-3.65-2.53-2.43-3.95-5.42-4.27-8.96-.19-4.3.71-8.91,2.7-13.85,1.99-4.93,4.16-9.07,6.5-12.42,3.1-4.36,6.86-8.55,11.29-12.57,4.42-4.01,9.28-7.3,14.56-9.86,5.28-2.56,10.7-3.84,16.26-3.84,3.35,0,6.24.87,8.68,2.61,2.43,1.74,3.78,4.5,4.03,8.3.32,5.37-.73,11.02-3.13,16.93-2.4,5.91-5.66,11.4-9.77,16.45.44,1.83,1.86,2.75,4.27,2.75s4.9-.93,7.68-2.8c2.78-1.86,5.48-4.06,8.11-6.59,2.62-2.53,4.88-4.87,6.78-7.02,1.9-2.15,3.16-3.54,3.79-4.17l.05.04c.24-.3.46-.59.71-.89,2.78-3.54,6.21-7.4,10.29-11.57,4.08-4.17,8.52-8.66,13.32-13.47,2.02.19,3.51.33,4.46.43s2.15.14,3.6.14c2.85,0,5.12-.09,6.83-.28-4.36,3.92-7.86,7.26-10.48,10.01-2.62,2.75-5.01,5.37-7.16,7.87-2.15,2.5-4.71,5.33-7.68,8.49-1.58,1.64-3.73,3.86-6.45,6.64-2.72,2.78-5.49,5.74-8.3,8.87-2.81,3.13-5.2,6.09-7.16,8.87-1.96,2.78-2.94,5.03-2.94,6.73,0,2.09.49,3.34,1.47,3.75.98.41,2.26.62,3.84.62,4.68,0,9.74-1.25,15.17-3.75,5.44-2.5,10.91-5.72,16.41-9.67,5.5-3.95,10.68-8.04,15.55-12.28,4.61-4.11,8.03-7.86,10.24-11.24,2.21-3.38,3.67-6.69,4.36-9.91.69-3.22,1.04-6.61,1.04-10.15,0-2.34.73-4.25,2.18-5.74,1.45-1.48,3.22-2.23,5.31-2.23,3.54,0,5.31,1.74,5.31,5.22,0,1.77-.46,3.94-1.38,6.5-.92,2.56-2.73,5.68-5.45,9.34-2.72,3.67-6.73,8.09-12.04,13.28l-2.56,2.37c-2.15,2.91-3.45,5.68-3.89,8.3-.44,2.62,1.04,3.94,4.46,3.94,2.15,0,4.57-.77,7.26-2.32,2.69-1.55,5.36-3.45,8.01-5.69,1.95-1.65,3.79-3.3,5.53-4.95,1.01-2.38,2.04-4.32,3.11-5.81,4.68-6.51,9.74-11.82,15.17-15.93,5.44-4.11,10.76-7.13,15.98-9.06,5.22-1.93,9.82-2.89,13.8-2.89s6.56.63,8.11,1.9c1.55,1.27,2.35,2.72,2.42,4.36.19,2.47-1.12,5.33-3.94,8.58-2.81,3.26-7.73,6.78-14.75,10.57-7.02,3.79-16.82,7.78-29.4,11.95-2.21,3.54-3.7,6.59-4.46,9.15s-1.14,4.85-1.14,6.88c0,2.97,1,5.28,2.99,6.92,1.99,1.64,4.35,2.47,7.07,2.47,5.94,0,11.52-1.12,16.74-3.37,5.22-2.24,9.99-5.07,14.32-8.49,4.33-3.41,8.14-6.88,11.43-10.38,3.29-3.51,5.97-6.57,8.06-9.2,2.09-2.62,3.48-4.25,4.17-4.88,1.83-1.96,3.9-4.41,6.21-7.35,2.31-2.94,4.73-5.88,7.26-8.82,2.53-2.94,5.12-5.39,7.78-7.35,2.66-1.96,5.22-2.94,7.68-2.94,1.83,0,3.65.4,5.45,1.19,1.8.79,2.54,2.67,2.23,5.64-.06,1.01-.38,2.29-.95,3.84-.57,1.55-1.71,3.53-3.41,5.93l-19.92,27.69.47,1.04c8.85-10.24,16.34-18.48,22.48-24.71,6.13-6.23,11.13-10.7,14.98-13.42,3.67-2.78,6.88-4.68,9.63-5.69,2.75-1.01,5.39-1.52,7.92-1.52,4.05,0,6.94,1,8.68,2.99,1.74,1.99,2.54,4.19,2.42,6.59-.13,2.28-.47,4.33-1.04,6.16-.57,1.83-1.9,4.36-3.98,7.59,5.5-5.63,10.43-10.21,14.79-13.75,4.74-3.86,8.61-6.42,11.62-7.68,3-1.26,5.8-1.9,8.39-1.9,4.11,0,7,1,8.68,2.99,1.68,1.99,2.48,4.19,2.42,6.59-.06,2.53-.9,5.55-2.51,9.06-1.61,3.51-4.36,7.87-8.25,13.09-3.89,5.22-9.34,11.65-16.36,19.3-3.29,3.41-5.25,5.61-5.88,6.59-.63.98-.95,1.88-.95,2.7l-.66.09c0,1.52,2.31,2.28,6.92,2.28,3.1,0,6.48-1.11,10.15-3.32,3.67-2.21,7.35-4.99,11.05-8.35,3.7-3.35,7.16-6.78,10.38-10.29,3.22-3.51,5.94-6.59,8.16-9.25,2.21-2.66,3.63-4.33,4.27-5.03l1.99,1.61ZM310.06,119.16c12.27-4.3,21.94-8.74,29.02-13.32,7.08-4.58,10.62-8.96,10.62-13.14,0-3.54-1.64-5.31-4.93-5.31-4.24,0-8.82,2.28-13.75,6.83-4.93,4.55-10.69,11.16-17.26,19.82-1.39,1.77-2.62,3.48-3.7,5.12ZM196.87,118.54c2.05-2.31,4.06-3.78,6.02-4.41,3.1-6.45,4.49-12.23,4.17-17.36-.19-3.1-1-5.25-2.42-6.45-1.42-1.2-2.99-1.8-4.69-1.8-3.67,0-8.17,2.17-13.51,6.5-5.34,4.33-11.3,10.57-17.88,18.73-4.68,5.88-7.95,10.84-9.82,14.89-1.87,4.05-2.67,7.56-2.42,10.53,0,1.71.58,3.51,1.75,5.41,1.17,1.9,3.21,2.85,6.12,2.85,2.21,0,4.77-.63,7.68-1.9,2.91-1.26,5.82-2.94,8.73-5.03,4.87-3.48,9.26-7.55,13.18-12.23v-.38c0-3.92,1.03-7.03,3.08-9.34Z"/>
    </g>
  </g>
</svg>