<?xml version="1.0" encoding="UTF-8"?>
<svg xmlns="http://www.w3.org/2000/svg" version="1.1" viewBox="0 0 512 450">
  <defs>
    <style>
      .cls-1 {
        fill: #07005e;
      }
    </style>
  </defs>
  <!-- Generator: Adobe Illustrator 28.7.1, SVG Export Plug-In . SVG Version: 1.2.0 Build 142)  -->
  <g>
    <g id="Lager_1">
      <path class="cls-1" d="M226.96,338.58h7.7v2.14h-10.23v-13.64h9.96v2.15h-7.43v3.53h6.59v2.09h-6.59v3.74ZM247.58,333.99c-.48-.28-1.01-.51-1.58-.68-.57-.17-1.15-.33-1.73-.46s-1.11-.27-1.59-.41c-.47-.14-.86-.34-1.15-.59-.29-.25-.44-.59-.44-1,0-.34.1-.65.3-.93.2-.28.52-.5.96-.67s1.01-.25,1.7-.25c.6,0,1.22.09,1.87.26.65.18,1.28.45,1.89.81l.8-1.97c-.6-.39-1.3-.69-2.11-.9-.81-.21-1.62-.31-2.44-.31-1.25,0-2.28.18-3.09.56-.81.37-1.42.86-1.81,1.48-.4.62-.59,1.3-.59,2.04s.15,1.33.44,1.79c.29.47.68.84,1.16,1.12.48.28,1.01.51,1.59.69s1.16.33,1.73.46,1.1.26,1.58.41c.47.15.86.35,1.16.6.3.25.45.59.45,1,0,.34-.1.64-.31.91-.21.27-.53.48-.97.63s-1.02.23-1.73.23c-.84,0-1.67-.14-2.48-.43-.81-.29-1.48-.64-2.03-1.07l-.88,1.97c.58.48,1.36.87,2.33,1.18.97.31,1.98.46,3.05.46,1.25,0,2.28-.19,3.1-.56s1.43-.86,1.82-1.48c.4-.62.59-1.29.59-2.02s-.15-1.3-.44-1.76c-.29-.46-.68-.83-1.16-1.11ZM251.89,329.22h4.52v11.5h2.53v-11.5h4.52v-2.15h-11.58v2.15ZM267.89,337.62c-.45,0-.84.15-1.15.44s-.47.68-.47,1.16.16.87.47,1.18.7.46,1.15.46c.43,0,.8-.15,1.11-.46.31-.31.47-.7.47-1.18s-.16-.87-.47-1.16c-.31-.29-.68-.44-1.11-.44ZM287.48,335.13c.62-.6,1.1-1.14,1.42-1.63s.55-.95.66-1.38c.12-.44.17-.88.17-1.34,0-.79-.2-1.48-.6-2.07-.4-.59-.97-1.04-1.7-1.36-.73-.32-1.59-.48-2.57-.48-1.12,0-2.13.2-3.03.59-.9.4-1.62.95-2.15,1.67l1.77,1.35c.39-.47.85-.82,1.39-1.05.54-.23,1.13-.35,1.78-.35.84,0,1.48.17,1.92.52.44.35.65.83.65,1.45,0,.25-.04.51-.12.79-.08.28-.23.58-.45.91-.22.32-.55.7-.99,1.13l-5.44,5.15v1.7h10.06v-2.14h-6.45l3.66-3.45ZM304.33,330.09c.5,1.05.75,2.32.75,3.81s-.25,2.76-.75,3.81c-.5,1.05-1.18,1.84-2.04,2.39s-1.83.82-2.9.82-2.07-.27-2.92-.82-1.54-1.34-2.04-2.39c-.5-1.05-.75-2.32-.75-3.81s.25-2.76.75-3.81c.5-1.05,1.18-1.84,2.04-2.39.86-.55,1.83-.82,2.92-.82s2.05.27,2.9.82c.86.54,1.54,1.34,2.04,2.39ZM302.53,333.9c0-1.09-.13-2-.4-2.71-.27-.71-.63-1.24-1.1-1.59-.47-.34-1.01-.52-1.64-.52s-1.17.17-1.65.52c-.47.35-.85.87-1.12,1.59-.27.72-.41,1.62-.41,2.71s.14,2,.41,2.71c.27.72.65,1.24,1.12,1.59.47.34,1.02.52,1.65.52s1.17-.17,1.64-.52c.47-.35.84-.87,1.1-1.59.27-.71.4-1.62.4-2.71ZM315.84,335.13c.62-.6,1.1-1.14,1.42-1.63s.55-.95.66-1.38.17-.88.17-1.34c0-.79-.2-1.48-.6-2.07-.4-.59-.97-1.04-1.7-1.36s-1.59-.48-2.57-.48c-1.12,0-2.13.2-3.03.59-.9.4-1.62.95-2.15,1.67l1.77,1.35c.39-.47.85-.82,1.39-1.05.54-.23,1.13-.35,1.78-.35.84,0,1.48.17,1.92.52.44.35.65.83.65,1.45,0,.25-.04.51-.12.79-.08.28-.23.58-.45.91-.22.32-.55.7-.99,1.13l-5.44,5.15v1.7h10.06v-2.14h-6.45l3.66-3.45ZM334.18,335.48h-2.38v-2.75h-2.4v2.75h-4.44l6.32-8.4h-2.71l-6.72,8.79v1.73h7.5v3.12h2.46v-3.12h2.38v-2.12ZM30.65,177.15c-2.63-3.9-3.95-8.8-3.95-14.7s1.81-11.34,5.42-16.13c3.62-4.79,8.64-8.58,15.09-11.37,6.44-2.79,13.88-4.19,22.32-4.19,4.63,0,9.01.33,13.13,1,4.12.67,8.66,2.02,13.61,4.04,3.24,1.33,6.28,2.68,9.14,4.04,2.86,1.37,6.09,2.87,9.71,4.52,2.16.89,4.38,1.62,6.66,2.19s4.47.86,6.57.86c2.35,0,4.77-.48,7.28-1.43,2.51-.95,4.65-2.19,6.42-3.71,1.08-1.01,1.81-1.52,2.19-1.52.51,0,.76.25.76.76s-.44,1.24-1.33,2.19c-1.71,1.65-3.93,3.13-6.66,4.43-2.73,1.3-5.51,2.32-8.33,3.05-2.82.73-5.22,1.09-7.19,1.09-3.93,0-8.47-.71-13.61-2.14s-9.68-3.31-13.61-5.66c-5.01-2.92-9.22-5.08-12.61-6.47-3.4-1.39-6.39-2.33-8.99-2.81-2.6-.48-5.23-.71-7.9-.71-6.28,0-12.09,1.24-17.42,3.71s-9.6,5.87-12.8,10.18c-3.21,4.32-4.81,9.2-4.81,14.66,0,6.73,2.25,12.31,6.76,16.75,4.5,4.44,10.5,6.66,17.99,6.66,4.38,0,8.66-.94,12.85-2.81,4.19-1.87,7.66-4.52,10.42-7.95s4.14-7.52,4.14-12.28c0-2.54-.86-4.73-2.57-6.57-.44.51-.97.97-1.57,1.38-.6.41-1.32.62-2.14.62-1.21,0-2.28-.4-3.24-1.19-.95-.79-1.43-1.82-1.43-3.09,0-1.08.4-2.06,1.19-2.95.79-.89,1.95-1.33,3.47-1.33,2.35,0,4.47,1.16,6.38,3.47,1.9,2.32,2.86,5.41,2.86,9.28,0,5.14-1.46,9.63-4.38,13.47-2.92,3.84-6.66,6.84-11.23,8.99-4.57,2.16-9.36,3.24-14.37,3.24s-9.49-.95-13.8-2.86c-4.32-1.9-7.79-4.81-10.42-8.71ZM203.82,152.16c10.41-8.88,19.78-15.35,28.12-19.42,8.34-4.06,16.07-6.09,23.18-6.09,4.88,0,8.68,1.38,11.37,4.14,2.7,2.76,4.04,6.65,4.04,11.66s-1.62,9.76-4.85,14.61c-3.24,4.85-7.33,9.22-12.28,13.09-4.95,3.87-9.99,6.79-15.13,8.76-1.08.51-1.62,1.02-1.62,1.52,0,.44.35.67,1.05.67,1.2,0,2.98-.54,5.33-1.62,6.66-3.24,12.52-7.11,17.56-11.61,5.04-4.5,8.98-9.15,11.8-13.94,2.82-4.79,4.2-9.15,4.14-13.09-.06-5.39-1.81-9.57-5.23-12.52s-8.47-4.43-15.13-4.43c-7.17.06-14.58,1.71-22.22,4.95-7.65,3.24-15.97,8.39-24.98,15.47-9.01,7.08-19.13,16.45-30.36,28.12-6.28,6.47-12.75,13.4-19.42,20.8-6.66,7.39-13.09,14.69-19.27,21.89-6.19,7.2-11.79,13.8-16.8,19.8-5.01,6-9.01,10.8-11.99,14.42,4.69-8.25,8.68-15.29,11.94-21.13,3.27-5.84,6.2-11.48,8.8-16.94,2.6-5.46,5.17-11.67,7.71-18.65,2.35-6.41,4.22-11.88,5.62-16.42,1.39-4.54,2.55-8.57,3.47-12.09.92-3.52,1.86-6.93,2.81-10.23.76-2.66,1.59-5.22,2.47-7.66.89-2.44,2.12-5,3.71-7.66l1.33-2.47c.25-.44.38-.86.38-1.24,0-.57-.29-.86-.86-.86-.44,0-1.24.7-2.38,2.09-1.02,1.52-6.77,8.82-17.27,21.89-10.5,13.07-25.71,30.84-45.64,53.3-11.74,13.2-21.95,23.64-30.65,31.31-8.69,7.68-16.07,13.15-22.13,16.42-6.06,3.27-11.06,4.9-14.99,4.9-5.2,0-9.03-.9-11.47-2.71-2.44-1.81-3.66-4.08-3.66-6.81v-.57c.63.38,1.35.64,2.14.76.79.13,1.6.19,2.43.19,1.39,0,2.63-.49,3.71-1.48,1.08-.98,1.62-2.08,1.62-3.28,0-1.52-.54-2.63-1.62-3.33-1.08-.7-2.16-1.05-3.24-1.05-1.97,0-3.93.62-5.9,1.86-1.97,1.24-2.95,3.28-2.95,6.14,0,3.49,1.57,6.5,4.71,9.04,3.14,2.54,7.95,3.81,14.42,3.81,7.93,0,17.32-4.27,28.17-12.8,10.85-8.53,23.7-20.89,38.55-37.07,6.22-6.85,11.69-12.99,16.42-18.42,4.73-5.42,9.12-10.58,13.18-15.47,4.06-4.88,8.12-9.85,12.18-14.89,4.06-5.04,8.5-10.58,13.32-16.61-7.68,13.2-14.67,26.71-20.99,40.54-6.31,13.83-11.15,26.36-14.51,37.59-1.97,6.73-3.66,12.28-5.09,16.66s-2.78,7.95-4.04,10.71c-1.27,2.76-2.7,5.12-4.28,7.09-.25.32-.56.62-.9.9-.35.29-.65.56-.9.81-.51.32-.76.73-.76,1.24,0,.89.44,1.33,1.33,1.33.38,0,.95-.25,1.71-.76.76-.51,1.97-1.74,3.62-3.71,3.62-4.12,8.55-9.96,14.8-17.51,6.25-7.55,13.66-16.35,22.22-26.41,8.57-10.06,18.11-20.86,28.65-32.41,13.26-14.53,25.09-26.24,35.5-35.12ZM506.57,229.26c-.76.83-2.3,2.62-4.62,5.38-2.32,2.76-5.16,5.93-8.52,9.52-3.36,3.59-7.01,7.11-10.95,10.56-3.93,3.46-7.9,6.33-11.9,8.61s-7.77,3.43-11.33,3.43-6.41-.68-8.95-2.05c-2.54-1.36-3.81-3.16-3.81-5.38,0-1.71.43-3.74,1.28-6.09.86-2.35,2.78-5.57,5.76-9.66,2.98-4.09,7.58-9.63,13.8-16.61,4.95-5.65,8.41-10.02,10.37-13.13,1.97-3.11,2.95-5.42,2.95-6.95,0-.89-.35-1.68-1.05-2.38-.7-.7-1.97-1.05-3.81-1.05-1.52,0-3.46.54-5.81,1.62-2.35,1.08-5.58,3.17-9.71,6.28-4.95,3.74-10.77,9.03-17.46,15.85-6.69,6.82-14.1,15.37-22.22,25.65l-8.85,11.61c-1.52-.32-3.33-.48-5.42-.48-2.22,0-4.11.11-5.66.33-1.55.22-2.68.43-3.38.62,3.74-4.57,6.65-8.12,8.71-10.66,2.06-2.54,3.71-4.58,4.95-6.14,1.24-1.55,2.43-3.08,3.57-4.57,1.14-1.49,2.63-3.44,4.47-5.85,1.84-2.41,4.44-5.84,7.8-10.28,3.68-4.82,6.42-8.61,8.23-11.37s3.03-4.85,3.66-6.28c.63-1.43.95-2.55.95-3.38,0-1.97-1.55-2.95-4.66-2.95-1.59,0-3.71.56-6.38,1.67-2.66,1.11-5.97,3.22-9.9,6.33-4.38,3.49-9.88,8.66-16.51,15.51-6.63,6.85-14.2,15.48-22.7,25.89l-8.85,11.61c-.89-.19-1.79-.32-2.71-.38-.92-.06-1.82-.1-2.71-.1-2.28,0-4.2.11-5.76.33-1.55.22-2.65.43-3.28.62,7.11-10.28,13.04-18.8,17.8-25.55,4.76-6.76,8.58-12.17,11.47-16.23,2.89-4.06,5.04-7.15,6.47-9.28,1.43-2.12,2.39-3.65,2.9-4.57.51-.92.79-1.67.86-2.24.13-1.84-.57-2.76-2.09-2.76-.89,0-2.28.89-4.19,2.66-1.9,1.78-4.04,4-6.42,6.66s-4.71,5.41-7,8.23c-2.28,2.82-4.28,5.28-6,7.38-.95.83-2.55,2.63-4.81,5.42-2.25,2.79-5.11,6-8.57,9.61-3.46,3.62-7.44,7.14-11.94,10.56-4.51,3.43-9.5,6.28-14.99,8.57-5.49,2.28-11.37,3.43-17.65,3.43s-10.66-1.62-13.32-4.85-4.06-7.2-4.19-11.9c-.06-3.09.51-6.5,1.69-10.21-2.79,2.43-5.7,4.63-8.74,6.59-3.93,2.54-7.61,3.81-11.04,3.81-3.11,0-5.06-.92-5.85-2.76-.79-1.84-.49-4.28.9-7.33-4.7,3.93-10.03,7.93-15.99,11.99-5.97,4.06-11.98,7.46-18.04,10.18-6.06,2.73-11.56,4.09-16.51,4.09-7.11,0-10.66-2.63-10.66-7.9,0-2.28.44-4.62,1.33-7,.87-2.34,2.59-5.36,5.14-9.08-2.47,2.23-4.99,4.17-7.57,5.79-2.82,1.78-5.47,2.66-7.95,2.66-3.05,0-5.11-.95-6.19-2.86-4.7,5.33-9.98,9.72-15.85,13.18-5.87,3.46-11.63,5.19-17.27,5.19-5.33,0-9.26-1.22-11.8-3.66-2.54-2.44-3.97-5.44-4.28-8.99-.19-4.31.71-8.95,2.71-13.9s4.17-9.1,6.52-12.47c3.11-4.38,6.88-8.58,11.33-12.61,4.44-4.03,9.31-7.33,14.61-9.9,5.3-2.57,10.74-3.85,16.32-3.85,3.36,0,6.26.87,8.71,2.62,2.44,1.75,3.79,4.52,4.04,8.33.32,5.39-.73,11.06-3.14,16.99-2.41,5.93-5.68,11.44-9.8,16.51.44,1.84,1.87,2.76,4.28,2.76s4.92-.94,7.71-2.81c2.79-1.87,5.5-4.08,8.14-6.61,2.63-2.54,4.9-4.88,6.81-7.04,1.9-2.16,3.17-3.55,3.81-4.19l.05.04c.24-.3.47-.59.71-.9,2.79-3.55,6.23-7.42,10.33-11.61s8.55-8.69,13.37-13.51c2.03.19,3.52.33,4.47.43s2.16.14,3.62.14c2.86,0,5.14-.1,6.85-.29-4.38,3.93-7.88,7.28-10.52,10.04-2.63,2.76-5.03,5.39-7.19,7.9-2.16,2.51-4.73,5.35-7.71,8.52-1.59,1.65-3.74,3.87-6.47,6.66-2.73,2.79-5.51,5.76-8.33,8.9-2.82,3.14-5.22,6.11-7.19,8.9-1.97,2.79-2.95,5.04-2.95,6.76,0,2.09.49,3.35,1.48,3.76.98.41,2.27.62,3.85.62,4.69,0,9.77-1.25,15.23-3.76,5.46-2.51,10.95-5.74,16.47-9.71,5.52-3.96,10.72-8.07,15.61-12.33,4.63-4.12,8.06-7.88,10.28-11.28,2.22-3.39,3.68-6.71,4.38-9.95.7-3.24,1.05-6.63,1.05-10.18,0-2.35.73-4.27,2.19-5.76,1.46-1.49,3.24-2.24,5.33-2.24,3.55,0,5.33,1.75,5.33,5.23,0,1.78-.46,3.95-1.38,6.52-.92,2.57-2.74,5.7-5.47,9.37-2.73,3.68-6.76,8.12-12.09,13.32l-2.57,2.38c-2.16,2.92-3.46,5.7-3.9,8.33-.44,2.63,1.05,3.95,4.47,3.95,2.16,0,4.58-.78,7.28-2.33,2.7-1.55,5.38-3.46,8.04-5.71,1.96-1.66,3.81-3.31,5.54-4.97,1.01-2.39,2.05-4.34,3.12-5.83,4.69-6.53,9.77-11.86,15.23-15.99,5.46-4.12,10.8-7.15,16.04-9.09,5.23-1.93,9.85-2.9,13.85-2.9s6.58.64,8.14,1.9c1.55,1.27,2.36,2.73,2.43,4.38.19,2.47-1.13,5.35-3.95,8.61-2.82,3.27-7.76,6.81-14.8,10.61-7.04,3.81-16.88,7.8-29.5,11.99-2.22,3.55-3.71,6.61-4.47,9.18s-1.14,4.87-1.14,6.9c0,2.98,1,5.3,3,6.95,2,1.65,4.36,2.47,7.09,2.47,5.96,0,11.56-1.13,16.8-3.38,5.23-2.25,10.02-5.09,14.37-8.52,4.35-3.43,8.17-6.9,11.47-10.42,3.3-3.52,6-6.6,8.09-9.23,2.09-2.63,3.49-4.27,4.19-4.9,1.84-1.97,3.92-4.43,6.23-7.38,2.32-2.95,4.74-5.9,7.28-8.85,2.54-2.95,5.14-5.41,7.8-7.38,2.66-1.97,5.23-2.95,7.71-2.95,1.84,0,3.66.4,5.47,1.19,1.81.79,2.55,2.68,2.24,5.66-.06,1.02-.38,2.3-.95,3.85-.57,1.56-1.71,3.54-3.43,5.95l-19.99,27.79.48,1.05c8.88-10.28,16.4-18.54,22.56-24.79,6.15-6.25,11.17-10.74,15.04-13.47,3.68-2.79,6.9-4.69,9.66-5.71,2.76-1.01,5.41-1.52,7.95-1.52,4.06,0,6.96,1,8.71,3,1.74,2,2.55,4.2,2.43,6.61-.13,2.28-.48,4.35-1.05,6.19-.57,1.84-1.9,4.38-4,7.61,5.52-5.65,10.47-10.25,14.85-13.8,4.76-3.87,8.64-6.44,11.66-7.71,3.01-1.27,5.82-1.9,8.42-1.9,4.12,0,7.03,1,8.71,3,1.68,2,2.49,4.2,2.43,6.61-.06,2.54-.9,5.57-2.52,9.09s-4.38,7.9-8.28,13.13-9.37,11.69-16.42,19.37c-3.3,3.43-5.27,5.63-5.9,6.61-.64.98-.95,1.89-.95,2.71l-.67.1c0,1.52,2.32,2.28,6.95,2.28,3.11,0,6.5-1.11,10.18-3.33,3.68-2.22,7.38-5.01,11.09-8.38,3.71-3.36,7.19-6.81,10.42-10.33,3.24-3.52,5.96-6.61,8.19-9.28,2.22-2.66,3.65-4.35,4.28-5.04l2,1.62ZM310.8,235.25c12.31-4.31,22.02-8.77,29.12-13.37,7.11-4.6,10.66-8.99,10.66-13.18,0-3.55-1.65-5.33-4.95-5.33-4.25,0-8.85,2.28-13.8,6.85s-10.72,11.2-17.32,19.89c-1.4,1.78-2.63,3.49-3.71,5.14ZM197.2,234.63c2.06-2.32,4.08-3.79,6.04-4.43,3.11-6.47,4.5-12.28,4.19-17.42-.19-3.11-1-5.27-2.43-6.47-1.43-1.2-3-1.81-4.71-1.81-3.68,0-8.2,2.17-13.56,6.52-5.36,4.35-11.34,10.61-17.94,18.8-4.7,5.9-7.98,10.88-9.85,14.94-1.87,4.06-2.68,7.58-2.43,10.56,0,1.71.59,3.52,1.76,5.42,1.17,1.9,3.22,2.86,6.14,2.86,2.22,0,4.79-.63,7.71-1.9,2.92-1.27,5.84-2.95,8.76-5.04,4.88-3.49,9.29-7.58,13.23-12.28v-.38c0-3.93,1.03-7.06,3.09-9.37ZM83.37,358.32l11.36,9.08-1.12,1.4-11.36-9.08-7.52,9.41-1.55-1.24,17.03-21.32,14.25,11.39-1.12,1.4-12.7-10.15-7.28,9.11ZM125.95,372.87c1.02,1.47,1.56,3.02,1.61,4.64.05,1.63-.43,3.27-1.44,4.94-.98,1.62-2.2,2.79-3.67,3.5-1.46.71-3.08.96-4.87.75-.45-.05-.91-.14-1.37-.26l.92,11.71-1.94-1.17-.88-11.2c-.77-.32-1.55-.7-2.35-1.18l-6.67-4.03-4.62,7.64-1.7-1.03,14.12-23.35,8.37,5.06c1.96,1.18,3.45,2.51,4.47,3.98ZM125.28,375.53c-.64-1.89-2.21-3.59-4.72-5.11l-6.67-4.03-7.66,12.68,6.67,4.03c2.51,1.52,4.76,2.12,6.73,1.79,1.97-.32,3.56-1.49,4.77-3.49,1.22-2.02,1.52-3.98.88-5.87ZM129.98,404.6l17.18,7.71.73-1.64-15.36-6.9,4.58-10.21,13.26,5.96.72-1.6-13.26-5.96,4.41-9.82,14.83,6.66.73-1.64-16.64-7.47-11.18,24.89ZM181.33,420.16l-10.64-28.15-1.6-.5-8.14,26.04,1.9.59,7.07-22.61,10.68,28.16,1.56.49,8.14-26.05-1.9-.59-7.07,22.61ZM220.21,405.27c-1.53-.93-3.24-1.57-5.13-1.93-1.99-.38-3.89-.39-5.71-.04-1.81.36-3.47,1.03-4.97,2.01-1.5.99-2.75,2.23-3.75,3.75s-1.69,3.26-2.07,5.22c-.37,1.97-.37,3.84,0,5.62.38,1.78,1.07,3.4,2.09,4.86,1.02,1.46,2.31,2.7,3.88,3.7,1.57,1,3.35,1.69,5.34,2.07,1.89.36,3.72.38,5.48.07,1.77-.31,3.35-.98,4.77-2.01l-.99-1.5c-1.37.93-2.79,1.51-4.28,1.75-1.49.23-3.01.2-4.57-.1-1.71-.33-3.24-.92-4.6-1.79-1.36-.87-2.48-1.94-3.36-3.22-.88-1.28-1.49-2.69-1.81-4.24-.33-1.54-.33-3.16-.01-4.84.32-1.68.92-3.18,1.79-4.5.87-1.32,1.95-2.41,3.24-3.27,1.29-.87,2.72-1.45,4.3-1.76,1.58-.31,3.22-.3,4.94.03,1.56.3,2.98.83,4.28,1.59,1.3.76,2.41,1.82,3.35,3.16l1.47-1.03c-.94-1.47-2.17-2.67-3.7-3.6ZM254.71,420.84l-18.19-1.43.98-12.51-1.98-.15-2.14,27.2,1.98.16,1.02-12.94,18.19,1.43-1.02,12.94,1.98.16,2.14-27.2-1.98-.16-.98,12.51ZM304.78,431.99c-1.37.61-2.85.98-4.43,1.1-1.74.13-3.37-.05-4.91-.53-1.53-.48-2.89-1.23-4.08-2.23-1.18-1.01-2.14-2.21-2.85-3.62-.72-1.41-1.14-2.96-1.27-4.67s.06-3.31.56-4.81c.5-1.5,1.26-2.83,2.28-4,1.02-1.17,2.25-2.11,3.7-2.82,1.45-.71,3.04-1.13,4.77-1.26,1.58-.12,3.1.02,4.55.42s2.8,1.12,4.05,2.18l1.15-1.38c-1.29-1.18-2.79-2.02-4.51-2.51-1.72-.5-3.54-.67-5.45-.53-2.02.15-3.86.64-5.52,1.45-1.66.82-3.08,1.89-4.27,3.23-1.19,1.34-2.07,2.87-2.64,4.6-.57,1.72-.79,3.58-.63,5.58.15,2,.64,3.8,1.46,5.42.83,1.62,1.92,3,3.28,4.15s2.93,2,4.71,2.56c1.78.56,3.67.76,5.7.61,1.92-.14,3.69-.6,5.31-1.36,1.62-.76,2.98-1.82,4.08-3.18l-1.34-1.19c-1.08,1.25-2.3,2.19-3.68,2.8ZM340.23,401.35l-1.95.36,2.85,15.37c.62,3.35.32,5.97-.92,7.86-1.23,1.9-3.24,3.1-6.03,3.62-2.81.52-5.13.12-6.96-1.2s-3.06-3.66-3.68-7.01l-2.86-15.37-1.95.36,2.87,15.45c.71,3.83,2.21,6.54,4.48,8.13s5.08,2.07,8.4,1.45c3.35-.62,5.8-2.08,7.35-4.38,1.56-2.3,1.98-5.36,1.27-9.2l-2.87-15.45ZM353.73,397.8l7.28,26.3,1.92-.53-7.28-26.3-1.92.53ZM390.18,403.5c-.89-.62-1.9-1-3.03-1.14-1.13-.14-2.31-.16-3.55-.06s-2.47.23-3.72.38c-1.25.15-2.42.2-3.51.15-1.09-.04-2.05-.29-2.86-.74-.81-.45-1.42-1.23-1.82-2.33-.35-.95-.4-1.91-.17-2.86.23-.96.8-1.86,1.71-2.71s2.18-1.58,3.82-2.17c1.15-.42,2.4-.67,3.77-.76,1.36-.09,2.71.03,4.05.37l.15-1.75c-1.23-.35-2.62-.49-4.15-.4-1.53.09-3.01.39-4.42.9-2.1.76-3.71,1.7-4.82,2.83s-1.8,2.31-2.06,3.57-.17,2.5.27,3.72c.49,1.34,1.17,2.33,2.05,2.97.88.64,1.88,1.02,3.01,1.17s2.32.16,3.58.05c1.26-.11,2.5-.24,3.72-.37,1.22-.14,2.38-.19,3.47-.14,1.09.05,2.05.29,2.88.74.83.45,1.44,1.22,1.84,2.32.34.93.38,1.87.13,2.81s-.84,1.85-1.76,2.69c-.92.85-2.24,1.58-3.95,2.2-1.71.62-3.44.9-5.19.83-1.75-.07-3.23-.4-4.44-.98l-.34,1.7c1.3.69,2.92,1.05,4.85,1.08,1.93.03,3.85-.3,5.76-.99,2.13-.77,3.75-1.71,4.88-2.83,1.13-1.12,1.84-2.31,2.12-3.59s.21-2.51-.23-3.71c-.48-1.32-1.16-2.29-2.05-2.91ZM395.81,382.67l11.37,24.81,1.81-.83-11.37-24.81-1.81.83ZM427.69,365.61l11.99,20.43-28-11.03-1.45.85,13.82,23.53,1.71-1.01-11.99-20.43,28.03,11.01,1.41-.83-13.82-23.53-1.71,1.01ZM471.04,365.12l-13.19,10.47-6.96-8.76,11.39-9.04-1.09-1.37-11.39,9.04-6.69-8.43,12.73-10.11-1.12-1.41-14.29,11.34,16.97,21.37,14.75-11.71-1.11-1.4ZM139.06,60.58c1.13-1.4,1.78-2.91,1.95-4.52.17-1.62-.17-3.27-1.02-4.96-.88-1.74-2.02-3.02-3.42-3.84-1.4-.82-3-1.19-4.79-1.1-1.79.09-3.71.65-5.75,1.68l-8.73,4.41,12.3,24.36,1.78-.9-4.02-7.97,6.96-3.51c.83-.42,1.57-.88,2.25-1.36l9.95,5.2,2.02-1.02-10.41-5.44c.34-.33.66-.67.94-1.03ZM133.52,62.66l-6.96,3.51-6.68-13.22,6.96-3.51c2.62-1.32,4.9-1.75,6.84-1.29s3.44,1.75,4.5,3.86c1.05,2.09,1.2,4.05.42,5.9-.77,1.85-2.47,3.43-5.09,4.75ZM175.9,54.66l.62,1.68-17.68,6.48-9.4-25.62,17.13-6.28.62,1.68-15.26,5.6,3.71,10.1,13.65-5.01.6,1.65-13.65,5.01,3.85,10.5,15.81-5.8ZM202.53,42.04c.31,1.23.27,2.47-.14,3.72-.41,1.24-1.23,2.37-2.46,3.36-1.23,1-2.95,1.78-5.14,2.34-1.96.5-3.91.64-5.83.42-1.92-.22-3.49-.74-4.72-1.55l.5-1.66c1.14.7,2.59,1.17,4.32,1.41s3.49.14,5.25-.31c1.76-.45,3.14-1.05,4.15-1.8,1-.75,1.67-1.59,2.02-2.51.34-.92.39-1.86.15-2.81-.29-1.13-.82-1.96-1.6-2.49-.78-.53-1.71-.86-2.79-1.02-1.08-.15-2.24-.22-3.47-.2-1.23.02-2.48.02-3.74,0-1.26-.01-2.45-.15-3.56-.4s-2.07-.74-2.89-1.46-1.4-1.77-1.75-3.15c-.32-1.26-.29-2.5.1-3.73.38-1.22,1.19-2.34,2.4-3.35,1.22-1.01,2.91-1.79,5.08-2.34,1.46-.37,2.96-.53,4.49-.46,1.53.07,2.9.33,4.09.81l-.32,1.73c-1.3-.47-2.63-.73-4-.77-1.36-.04-2.64.09-3.82.39-1.69.43-3.02,1.03-4.01,1.79-.99.76-1.64,1.61-1.97,2.53-.33.93-.36,1.88-.11,2.87.29,1.13.82,1.96,1.58,2.49.76.53,1.69.87,2.77,1.02s2.25.22,3.51.19c1.25-.02,2.5-.03,3.74,0,1.24.02,2.41.16,3.52.41s2.08.73,2.9,1.43c.82.7,1.41,1.73,1.75,3.09ZM228.2,18.84l-9.7,1.55,4.04,25.17-1.96.31-4.04-25.17-9.7,1.55-.28-1.77,21.36-3.42.28,1.77ZM247.86,15.29l-10.74,28.05,2.14-.14,2.97-7.89,15.79-1.04,3.99,7.43,2.14-.14-14.31-26.41-1.98.13ZM242.88,33.59l6.09-16.18,8.18,15.24-14.27.94ZM294.24,15.08l1.99.08-.61,15.7c-.15,3.9-1.24,6.79-3.26,8.69-2.02,1.9-4.74,2.78-8.14,2.65-3.38-.13-6-1.22-7.87-3.27-1.87-2.05-2.73-5.02-2.58-8.92l.6-15.7,1.99.08-.6,15.62c-.13,3.4.55,5.95,2.05,7.65,1.5,1.7,3.67,2.6,6.53,2.71,2.83.11,5.06-.62,6.68-2.2,1.62-1.58,2.5-4.06,2.63-7.47l.6-15.62ZM328.09,20.11c-1.51-.96-3.4-1.6-5.67-1.93l-9.68-1.42-3.96,27,1.97.29,1.3-8.83,7.71,1.13c.92.14,1.79.18,2.62.18l5.15,9.98,2.24.33-5.38-10.44c.47-.07.93-.17,1.36-.3,1.73-.5,3.13-1.35,4.2-2.58,1.07-1.22,1.75-2.77,2.02-4.65.28-1.93.09-3.63-.59-5.11s-1.77-2.7-3.28-3.65ZM329.96,28.58c-.34,2.31-1.36,4-3.05,5.07-1.69,1.07-3.99,1.38-6.9.96l-7.71-1.13,2.15-14.66,7.71,1.13c2.91.43,5.02,1.39,6.34,2.88,1.32,1.49,1.8,3.41,1.46,5.75ZM355.35,24.77l-18.96,23.3,2.08.53,5.29-6.57,15.33,3.94,1.47,8.31,2.08.53-5.36-29.56-1.92-.5ZM344.91,40.6l10.84-13.46,3.01,17.03-13.85-3.56ZM400.07,39.62l1.85.72-9.86,25.44-1.53-.59-8.78-28.81-8.56,22.09-1.85-.72,9.86-25.44,1.56.61,8.74,28.79,8.56-22.09ZM432.31,55.58l-.84,1.59-8.68-4.59-11.92,22.54-1.76-.93,11.92-22.54-8.69-4.59.84-1.59,19.13,10.11Z"/>
    </g>
  </g>
</svg>